<svg xmlns="http://www.w3.org/2000/svg" xmlns:xlink="http://www.w3.org/1999/xlink" version="1.1" id="Capa_1" x="0px" y="0px" viewBox="0 0 612 241" enable-background="new 0 0 612 241" xml:space="preserve">
<g>
	<g>
		<path fill="#86274A" d="M430.4,86.1c0,1.1-0.1,2.1,0,3.2c0.3,3.6,0.6,7.1,0.9,10.7c0.1,1.5,0.8,2.5,2.2,3.1    c3.1,1.2,6.3,2.3,9.4,3.4c0.3,0.1,0.6,0.2,1,0.3c-0.4,1.9-0.8,3.7-1.2,5.5c-0.4,1.8-0.4,1.8-2.3,1.8c-13.4,0-26.8,0-40.2,0    c-0.8,0-1.2-0.2-1.3-1c-0.3-1.8-0.7-3.7-1.2-5.5c-0.2-0.6,0-0.9,0.6-1.1c3-1,5.9-2,8.8-3c0.6-0.2,1-0.5,1-1.2    c0.3-5.9,0.8-11.8,0.9-17.7c0.1-9,0.1-18.1,0-27.2c-0.1-4-0.6-7.9-0.9-11.9c-0.2-1.9-1.1-3.3-2.8-4.2c-2.3-1.1-4.6-2.2-6.9-3.2    c-0.7-0.3-0.9-0.5-0.7-1.3c0.5-1.8,0.8-3.6,1.2-5.5c0.1-0.7,0.4-0.9,1.1-0.9c4.7,0,9.4,0.1,14.1,0c8.1-0.2,16.2-0.4,24.3-0.6    c7.1-0.2,14.2-0.1,21.1,2c5.3,1.6,10,4.2,13.5,8.5c2.9,3.6,4.4,7.8,5,12.3c0.7,6,0.1,11.8-2.5,17.2c-3.4,7.2-9.2,11.6-16.6,14.3    c-6.6,2.4-13.4,2.9-20.3,2.6c-2.5-0.1-4.9-0.4-7.4-0.6C431,86.1,430.7,86.1,430.4,86.1z M430.3,74.2c5.6,0.8,11.1,1.1,16.7,0.4    c4-0.4,6.3-2.5,7.5-6.1c0-0.1,0-0.1,0.1-0.2c1.5-4,1.9-8.2,1.7-12.5c-0.2-3.5-1-6.8-2.6-9.9c-1.2-2.3-3-3.8-5.5-4.6    c-5.4-1.7-10.9-1.3-16.3,0.1c-0.3,0.1-0.6,0.5-0.6,0.8c-0.2,1.2-0.3,2.5-0.4,3.8c-0.7,9.2-0.6,18.4-0.6,27.6    C430.3,73.7,430.3,73.9,430.3,74.2z"/>
		<path fill="#86274A" d="M343.3,67.9c1.2-0.1,2.4-0.1,3.6-0.2c7.1-0.4,14.1-0.8,21.2-1.2c0.3,0,0.8,0.2,1,0.4    c2.1,2.4,2.1,2.5,1.5,5.6c-0.4,2.3-0.8,4.5-1.2,6.9c-8.7-0.3-17.4-0.6-26-0.9c-0.1,0.1-0.1,0.2-0.1,0.3c0,6.7,0,13.3,0.9,20    c0.4,2.6,1.7,4.1,4.2,4.6c1.6,0.3,3.2,0.7,4.8,0.8c4.6,0.3,9.1,0,13.6-0.7c0.7-0.1,1-0.4,1.2-1.1c1.2-4.3,2.5-8.5,3.7-12.8    c0.2-0.7,0.5-1,1.2-1c3.9,0.2,7.8,0.4,11.7,0.5c0.7,0,1,0.3,1,1c0,5.2,0.1,10.4,0.1,15.6c0,2.4-0.1,4.9-0.1,7.3    c0,0.6-0.3,0.9-0.9,0.9c-1.3,0-2.5,0-3.8,0c-22.4,0-44.9,0-67.3,0c-1,0-1.5-0.2-1.6-1.3c-0.3-1.7-0.6-3.4-1.1-5    c-0.2-0.8,0-1.1,0.7-1.4c3-1,5.9-2,8.8-3c0.6-0.2,0.8-0.5,0.9-1.1c0.3-6.4,0.8-12.8,0.9-19.2c0.2-7.8,0.1-15.5,0-23.3    c-0.1-4.8-0.6-9.5-0.9-14.3c-0.1-1.9-1.1-3.4-2.9-4.3c-2.3-1.1-4.7-2.2-7-3.2c-0.6-0.2-0.7-0.5-0.6-1c0.4-1.9,0.9-3.8,1.2-5.7    c0.1-0.8,0.5-0.9,1.1-0.9c7.4,0,14.8,0,22.2,0c10.2-0.1,20.4-0.1,30.6-0.3c5-0.1,10.1-0.4,15.1-0.7c0.9-0.1,1.5,0.1,2,1    c0.8,1.4,1.8,2.7,2.7,4.2c0.2,0.3,0.3,0.8,0.2,1.2c-1.3,6.4-2.6,12.7-3.9,19c-0.1,0.6-0.3,0.9-1,0.9c-3.7-0.2-7.4-0.4-11.1-0.6    c-0.6,0-0.8-0.4-0.9-0.9c-0.9-4-1.8-8-2.7-12c-0.2-0.9-0.6-1.2-1.4-1.3c-6.7-1-13.4-0.9-20.1-0.6c-0.6,0-0.8,0.2-0.9,0.8    c-0.2,8.7-0.5,17.5-0.8,26.2C343.2,67.5,343.3,67.7,343.3,67.9z"/>
		<path fill="#86274A" d="M297.8,57.6c-4.3-0.2-8.6-0.4-12.9-0.6c-0.3-1.9-0.5-3.7-0.9-5.5c-0.6-2.5-1.2-5-1.9-7.5    c-0.2-0.6-0.7-1.2-1.2-1.5c-3.6-2.3-7.7-2.8-11.9-2.4c-2.1,0.2-4.1,0.7-6.1,1.3c-0.6,0.1-1.2,0.7-1.4,1.2    c-2.6,5.4-2.7,12.6,3.7,17.2c3.3,2.4,7.1,4,10.8,5.6c4.8,2.1,9.6,4.1,14.3,6.5c4.2,2.2,7.8,5.2,10.1,9.5    c4.4,8.1,4.1,19.8-5.6,27.3c-4.5,3.5-9.6,5.6-15.2,6.5c-12,2-23.9,1-35.4-3.1c-2-0.7-3.8-1.8-5.7-2.7c-0.5-0.2-0.7-0.6-0.7-1.1    c0.2-5.7,0.3-11.3,0.4-17c0-1.6,0.1-1.6,1.7-1.7c3.6-0.2,7.2-0.4,10.9-0.5c1.4,0,1.3,0.1,1.7,1.4c1.1,3.8,2.2,7.6,3.3,11.4    c0.2,0.8,0.7,1.2,1.4,1.6c2.5,1.3,5.2,1.8,7.9,2c4.1,0.3,8.3,0.3,12.3-1c0.6-0.2,1.3-0.7,1.6-1.2c1.9-2.8,2.5-6,2.1-9.3    c-0.3-1.9-1.3-3.5-2.8-4.8c-1.9-1.8-4.2-3-6.6-4c-4.5-1.9-9-3.6-13.5-5.5c-4.3-1.8-8.4-3.9-12.1-6.8c-10.3-8.2-11.4-24.4-0.4-34    c5-4.4,10.9-7.1,17.4-8.4c12.4-2.4,24.3-0.7,35.6,5c1,0.5,1.4,1.4,2,2.3c0.9,1.3,1.1,2.6,0.7,4.2c-1.2,4.8-2.3,9.7-3.5,14.6    C298,56.8,297.9,57.1,297.8,57.6z"/>
	</g>
	<g>
		<path fill-rule="evenodd" clip-rule="evenodd" fill="#A88C60" d="M67.9,68c0-0.7-0.1-1.5-0.8-1.3c-2.1,0.7-5.2,3.7-5.2,5.6    c0,4.5,1.7,10.2,4.1,11.5c1,0.4,4.4,0,5.6-0.7c0.2-0.2-0.3-1.2-0.3-1.7c-0.8,0-2.9,0.9-3.8,0.4c-2.7-0.7-2.7-5.9-2.3-8.5l2.6-4.6    c-1,1-2.7,1.9-3.2,1.7C64.3,69.2,67.1,67,67.9,68L67.9,68z"/>
		<path fill-rule="evenodd" clip-rule="evenodd" fill="#A88C60" d="M73,77.4c0.1,1.9-5.5,2.6-5.8-0.2C69,78.2,71.5,78.3,73,77.4    L73,77.4z"/>
		<path fill-rule="evenodd" clip-rule="evenodd" fill="#A88C60" d="M81.9,79.2c4.4-1.6,8.2,7.2,4.4,11.1    C87.6,86.8,86.3,80.3,81.9,79.2L81.9,79.2z"/>
		<path fill-rule="evenodd" clip-rule="evenodd" fill="#A88C60" d="M79.1,80.6c0.1-0.2,0.2-0.6,0.3-0.5c0.2,0.3,0.7,0.3,0.9,0.3    c2.3,0.2,4.8,3.7,5.3,8c0.2,3.7-9.1,12-12.1,16c-1.3,3.3,1.4,7.3,0.7,6.9c-6.5-3.8-1.7-10-1.1-10.6c7.1-8.2,13.9-12,8.2-17.8    c0,0-1.7-0.6-2.1-0.9C78.9,81.7,78.9,81,79.1,80.6L79.1,80.6z"/>
		<path fill-rule="evenodd" clip-rule="evenodd" fill="#A88C60" d="M91.5,121.6c0.2,0.1,1.7-1.9,1.8-2.2c0-0.1,0.1-0.3,0.6-1    c1.4-2.3,0.6-6.4-2.4-8.2c-3.3-2.2-8.8,0.3-13.6-1c-2.4-1.2-2.6-5.2-2.7-4.6c-1.7,5.6,4,6.3,4.6,6.3c7.9,1,13.1-1.9,12.9,5.7    c0,0-0.2,0.7-0.4,1.2c-0.9,1.1-2.2,2.7-2.2,2.7C89.5,120.6,91.3,121.3,91.5,121.6L91.5,121.6z"/>
		<path fill-rule="evenodd" clip-rule="evenodd" fill="#A88C60" d="M101.6,68.2c-1.6-1.5-4.4-2.2-6.4-2.7c-0.1,0-0.3,0.3-0.5,0.7    c1.2,0.2,5.1,1.5,6.6,2.6C101.6,68.9,101.6,68.3,101.6,68.2L101.6,68.2z"/>
		<path fill-rule="evenodd" clip-rule="evenodd" fill="#A88C60" d="M102.6,78.7c0.1-2.2-0.1-3.6,0.2-5c0,0-0.6,0.5-0.9,0.5    c0.2,0.7,0.2,3.4-0.2,4.5C101.7,78.8,102.6,78.7,102.6,78.7L102.6,78.7z"/>
		<path fill-rule="evenodd" clip-rule="evenodd" fill="#A88C60" d="M99.6,103.1c-0.7-7.2-0.5-7.5-0.3-10.5c0,0,0.7,0.1,1.6,0    c-1.2,1.2-0.1,9.7,1,11.5C101.9,104.3,100.7,104.1,99.6,103.1L99.6,103.1z"/>
		<path fill-rule="evenodd" clip-rule="evenodd" fill="#A88C60" d="M108.3,101.8c-1.1-6.9-0.7-6.8-0.5-9.6c0,0,0.6,0,1.5-0.1    c-1.2,1.2-0.6,6.7,0.3,8.5C109.7,100.7,109.4,102.7,108.3,101.8L108.3,101.8z"/>
		<path fill-rule="evenodd" clip-rule="evenodd" fill="#A88C60" d="M115.1,97c-0.8-4.8-0.8-4.6-0.8-6.6c0,0,0.3-0.2,0.9-0.2    c-0.8,0.8,0.5,3.4,1,6.6C116.5,97.7,116.2,97.9,115.1,97L115.1,97z"/>
		<path fill-rule="evenodd" clip-rule="evenodd" fill="#A88C60" d="M119.9,89.4c-0.9-2-0.8-2-1.4-2.7c0,0-0.2,0.1-0.5,0.3    c0.7-0.1,0.7,1.3,1.2,2.7C119.5,90.1,119.6,90.1,119.9,89.4L119.9,89.4z"/>
		<path fill-rule="evenodd" clip-rule="evenodd" fill="#A88C60" d="M98.4,88.9c0.7-2.2,1.2-3.9,1.7-5.2c0,0-0.6,0-0.9-0.1    c0,0.8-1.4,4-1.7,5.2L98.4,88.9L98.4,88.9z"/>
		<path fill-rule="evenodd" clip-rule="evenodd" fill="#A88C60" d="M94.3,88.8c0.8-2.1,1.7-3.8,2.3-5.1c0,0-0.7,0-1-0.2    c0,0.8-1.7,3.7-2.2,5C93.5,88.6,94.3,88.8,94.3,88.8L94.3,88.8z"/>
		<path fill-rule="evenodd" clip-rule="evenodd" fill="#A88C60" d="M105.3,88.6c0.3-3.2,0.4-5.1,0.6-7.1c0,0-0.6,0.7-1,0.7    c0,1.1-0.7,5.1-0.7,6.7C104.2,89,105.3,88.6,105.3,88.6L105.3,88.6z"/>
		<path fill-rule="evenodd" clip-rule="evenodd" fill="#A88C60" d="M109.2,75.2c-1-2.9-1.7-4.6-2.2-6.4c0,0-0.3,0.9-0.6,1    c0.6,0.9,1.7,4.2,1.9,5.8C108.4,75.8,109.2,75.2,109.2,75.2L109.2,75.2z"/>
		<path fill-rule="evenodd" clip-rule="evenodd" fill="#A88C60" d="M113,86.5c-0.1-3.7-0.3-6.1-0.3-8.5c0,0-0.5,0.9-0.8,0.9    c0.3,1.3,0.3,5.8,0.1,7.8C112,86.9,112.9,86.5,113,86.5L113,86.5z"/>
		<path fill-rule="evenodd" clip-rule="evenodd" fill="#A88C60" d="M130.6,67c3.5,1.7,5.6,2.5,7.7,3.7c0,0-0.6-0.8-0.4-1.2    c-1.3-0.3-5.3-2.2-7-3.4C130.7,66,130.6,67,130.6,67L130.6,67z"/>
		<path fill-rule="evenodd" clip-rule="evenodd" fill="#A88C60" d="M144.8,61.1c2.9-0.8,20.7,18.4,23.6,23.5c0,0,1.2-0.3,1.4-0.6    c-1.1-3.2-19.8-24.1-23.9-24C145.9,60,144.8,61,144.8,61.1L144.8,61.1z"/>
		<path fill-rule="evenodd" clip-rule="evenodd" fill="#A88C60" d="M140,77.6c1.4-0.4,8.9,6.1,10.3,8.5c0,0,1.4,0.2,0.9-0.3    c-0.6-1.6-8.6-9.3-10.5-9.2L140,77.6L140,77.6z"/>
		<path fill-rule="evenodd" clip-rule="evenodd" fill="#A88C60" d="M137.1,84.8c1,0.2,4.4,3.2,6.2,4.6c0,0,1.4,0.2,0.8-0.4    c-0.8-1.1-5.1-5.6-6.6-5.9C137.5,83.1,137.2,84.8,137.1,84.8L137.1,84.8z"/>
		<path fill-rule="evenodd" clip-rule="evenodd" fill="#A88C60" d="M133,90.9c0.9,0.2,1.3,1,3.2,2.5c0,0,1.4,0.2,0.9-0.4    c-0.9-1.1-2.2-3.2-3.6-3.5L133,90.9L133,90.9z"/>
		<path fill-rule="evenodd" clip-rule="evenodd" fill="#A88C60" d="M127.6,96.3c0.9,0.2,1.1,1.1,2.3,2.5c0,0,0.3-0.5,0.7-1.1    c-0.9-1.1-1.2-1.5-2.2-2.4L127.6,96.3L127.6,96.3z"/>
		<path fill-rule="evenodd" clip-rule="evenodd" fill="#A88C60" d="M120,100.1c0.9,0.2,3.6,5.1,4.9,6.6c0,0,0.2-0.5,0.5-1.1    c-0.8-1.1-4.2-6.5-5.2-7.3L120,100.1L120,100.1z"/>
		<path fill-rule="evenodd" clip-rule="evenodd" fill="#A88C60" d="M114.4,104.9c0.9,0.3,4.1,5.8,5.4,7.3c0,0,0.3-0.5,0.6-1.1    c-0.9-1.1-4-6.3-4.9-7.1L114.4,104.9L114.4,104.9z"/>
		<path fill-rule="evenodd" clip-rule="evenodd" fill="#A88C60" d="M125.9,113.5c0.9,0.2,3.6,5.3,4.1,7.6c0,0,0.3-0.2,0.7-0.8    c-0.4-1.3-2.8-7.3-3.8-7.9C125.9,111.8,125.3,113.1,125.9,113.5L125.9,113.5z"/>
		<path fill-rule="evenodd" clip-rule="evenodd" fill="#A88C60" d="M118.7,118c0.7,0,4.4,4.5,5.2,6.6c0,0,0.4,0.1,0.7-0.5    c-0.2-1.3-3.8-6.3-4.7-6.9C118.9,116.6,117.9,117,118.7,118L118.7,118z"/>
		<path fill-rule="evenodd" clip-rule="evenodd" fill="#A88C60" d="M127.4,130.8c0.5,0.1,2.3,2.7,2.8,4.1c0,0,0.5,0.1,0.7-0.3    c-0.2-0.8-1.7-3.6-2.2-3.9C128.2,130.2,126.9,130.3,127.4,130.8L127.4,130.8z"/>
		<path fill-rule="evenodd" clip-rule="evenodd" fill="#A88C60" d="M122.8,131.7c0.3,0,1.9,2,2.4,3.3c0,0,0.6,0,0.8-0.3    c-0.2-0.9-2.2-3.5-2.7-3.8C122.8,130.5,122.9,131.2,122.8,131.7L122.8,131.7z"/>
		<path fill-rule="evenodd" clip-rule="evenodd" fill="#A88C60" d="M112.7,120.8c0.9,0.8,4.6,4.1,6.8,7c0,0-0.1,0.3,0.2-0.2    c-1.6-2.7-5.2-6.4-6-7.1C111.3,118.2,111.7,118.5,112.7,120.8L112.7,120.8z"/>
		<path fill-rule="evenodd" clip-rule="evenodd" fill="#A88C60" d="M130.5,105.2c0.9,0.2,3.4,5.6,4.4,9.4c0,0,0.2-0.4,0.4-1    c-0.3-1.9-3.5-9-4.4-9.7C130.9,103.9,130.5,105.1,130.5,105.2L130.5,105.2z"/>
		<path fill-rule="evenodd" clip-rule="evenodd" fill="#A88C60" d="M107.2,108c0.9,0.2,4.4,5.7,5.6,7.1c0,0,0.5-0.2,0.8-0.7    c-0.9-1.1-4.7-6.1-5.6-6.7L107.2,108L107.2,108z"/>
		<path fill-rule="evenodd" clip-rule="evenodd" fill="#A88C60" d="M132.7,75.6c2.1,1.3,3.5,2.3,3.5,2.4c-0.2,0.2,0.3-0.7,0.4-1.2    c-0.7-0.2-2.9-1.2-3.9-2.2C132.6,74.7,132.7,75.6,132.7,75.6L132.7,75.6z"/>
		<path fill-rule="evenodd" clip-rule="evenodd" fill="#A88C60" d="M130,83.3c2.1,1.2,2.1,1.3,2.1,1.3c-0.2,0.2,0.5-0.6,0.6-1    c-0.7-0.2-1-0.7-2.1-1.3C130.6,82.3,130,83.2,130,83.3L130,83.3z"/>
		<path fill-rule="evenodd" clip-rule="evenodd" fill="#A88C60" d="M125.8,89.2c2.1,1.2,1.7,1.4,1.7,1.4c-0.1,0.2,0.6-0.6,0.7-1    c-0.6-0.5-0.7-0.7-1.8-1.3C126.3,88.3,125.8,89.1,125.8,89.2L125.8,89.2z"/>
		<path fill-rule="evenodd" clip-rule="evenodd" fill="#A88C60" d="M113.1,72.2c-1.8-2.7-3.6-4.7-4.6-6.5c0,0,0,0.6-0.3,0.7    c0.9,0.7,3.5,4.9,4.2,6.4C112.4,73,113.1,72.2,113.1,72.2L113.1,72.2z"/>
		<path fill-rule="evenodd" clip-rule="evenodd" fill="#A88C60" d="M71.2,67.5c0.3-0.1,0.5-1,0.7-0.8c0.8,1.4,1,3.1-0.2,4.8    C71.9,69.9,71.8,68.9,71.2,67.5L71.2,67.5z"/>
		<path fill-rule="evenodd" clip-rule="evenodd" fill="#A88C60" d="M74.2,71.4c1.2,1.6-7.1,6.7-8,4.7c-0.3-0.9,1.2-5.4,2.2-7.5    c0.7-1.4,0.2-2.4-0.2-2.5c-0.8-0.2,1.2-1.7,1.3-1.7c1.9-1.2,2.3,1.1,1.7,1.7c-2.2,2.2-1.3,3-1.1,2.9c0.6-0.3-0.1,2.4-1.8,3.7    c-0.3,0.2-0.7,1.3-0.2,1.8C70.1,74.2,73.3,72.8,74.2,71.4L74.2,71.4z"/>
		<path fill-rule="evenodd" clip-rule="evenodd" fill="#A88C60" d="M80.2,75.4c-1,0.2-1.7-0.3-1.9-0.2c0,1.3-0.7,1.5-2.8,1.2    c-0.8,0.3-1.7,1.4-2.1,2c-2,3.7,0.9,8.2,7.2,7.1c-5.2-3.9-2.2-7.8,3.7-7.1c0-0.2,2.5-1.3,2.5-1.8c-0.3,0-2.9-0.5-4-0.5    c-0.5,0,0.7,1.2,0.2,1.2c-3.6,0.1-9,2.4-5.8,6.6c0.1,0.2-4.1-0.2-2.7-4.4c0.2-0.7,0.8-1.7,1.4-1.7c0.9,0,2.4-0.1,2.7-0.3    L80.2,75.4L80.2,75.4z"/>
		<path fill-rule="evenodd" clip-rule="evenodd" fill="#A88C60" d="M77.4,73.8c10.3,1.3,9.5,0.4,10.9,0.3c1,0,3.2,0.1,4.6,2.2    c0.7,1-4.1,3.7-6.7,4.1c2.3-2,4.8-3.2,4.1-4c-0.8-0.3-2.4-0.7-3.4-0.1c-0.8,0.6-2.6-0.2-4.1-0.4c-0.7-0.2-1.6-0.3-2.6-0.3    c-0.7,0-1.9-0.3-3-0.4C76.5,75.3,77.1,75.3,77.4,73.8L77.4,73.8z"/>
		<path fill-rule="evenodd" clip-rule="evenodd" fill="#A88C60" d="M82.8,62.1c0,1-0.4,4.8-1.5,5.6c-1.1,1.6-3.5,1.2-3.5,4.8    c1.5,1.1,2.8,0.7,4.1,0.3l-0.1-0.9c-2.7,0.1-3.3,0-2.2-1.3c-0.1-0.5,1.8-1,3.1-3.3c-0.1,1.2-1.6,4.5-1.7,4.6    c0.7,0.1,0.7,0.1,0.8,0.1c0.2,0,0.8-2.6,1.3-3.8c0.1-0.3,0.6-0.6,0.6-0.7C84.3,66.3,84.1,64.1,82.8,62.1L82.8,62.1z"/>
		<path fill-rule="evenodd" clip-rule="evenodd" fill="#A88C60" d="M83.5,69.3c0.3,0.1,0.2-1.6,0.7-1.2c1.5,1.6,1.9,4-1.8,5.3    C84.3,71.6,84.7,70.1,83.5,69.3L83.5,69.3z"/>
		<path fill-rule="evenodd" clip-rule="evenodd" fill="#A88C60" d="M87.3,63.6c-0.3-0.2,0.7-0.6,0.7-1c-0.2-1.9-2.9-3.8-2.8-3.3    c0.2,1.9,0.3,4-0.3,6.5c-0.1-0.3,0.8-0.4,1.1-0.9c0.6-1.2,0.3-1.9,0.3-3.1C86.4,61.5,87.2,62.2,87.3,63.6L87.3,63.6z"/>
		<path fill-rule="evenodd" clip-rule="evenodd" fill="#A88C60" d="M94,62.9c-0.2-0.2,0.5,1.5,0.8,1.2c3.5-4.3,0.9-7.1-0.9-7.3    c-1.6-0.2-0.3,2.6-2.2,4.5c0.1-0.3,0.2,1.2,0.7,0.8c1.2-0.8,1.2-1.6,1.8-2.7C94.3,59.2,95.1,60.7,94,62.9L94,62.9z"/>
		<path fill-rule="evenodd" clip-rule="evenodd" fill="#A88C60" d="M84.3,67.4c0.2,0.1,0.7,1.2,1.2,0.9c4.6-2.8,7.1-6,3.7-11.1    C89.6,62.1,89.4,64.3,84.3,67.4L84.3,67.4z"/>
		<path fill-rule="evenodd" clip-rule="evenodd" fill="#A88C60" d="M86.2,70.9c0-0.3-0.7,1.2,0.2,1.1c2.7-0.2,8.9-6.1,7-7.4    c-0.2-0.2-0.3-0.7-0.4-0.7c-1.7,0-4.6,3.7-7,5.1c0.2-0.2-0.1,0.9,0.4,0.7c2-0.6,5.1-4.5,5.9-4.1C93,66,88.3,70,86.2,70.9    L86.2,70.9z"/>
		<path fill-rule="evenodd" clip-rule="evenodd" fill="#A88C60" d="M97.6,61.7c0.1,0.2-0.9-1.1-0.2-1.2c1.8,0,6.1,2.4,8.2,2    c0.6-0.1,1.8,0.4,1.8,1.1c0.1,0.2-1.2,2.7-1.4,2.7c-1.9,0.2-6.5-2.2-9.1-2.9c0.3,0.2-0.5-0.8,0.2-0.8c2,0.2,7.3,2.7,8.1,2.3    c0.1,0,0.6-0.1,0.3-0.2C104.3,63.7,99.4,61.8,97.6,61.7L97.6,61.7z"/>
		<path fill-rule="evenodd" clip-rule="evenodd" fill="#A88C60" d="M113.5,61.1c0.2,0.3-0.7-0.5-0.7-0.8c0.1-0.9,3-0.1,3.3-0.2    c0.2-0.1,0.3,0.1,0.7,0.3c0,0.1,1.9,3.1,1.7,3.6c-0.5,0.9-2.1,0.3-3.1,0.6c0.2,0.1-0.9-1-0.7-1c1.2-0.1,2.5,0.2,2.5-0.3    c0-0.2-0.7-2-1.1-2.2C115,60.6,114.3,61,113.5,61.1L113.5,61.1z"/>
		<path fill-rule="evenodd" clip-rule="evenodd" fill="#A88C60" d="M132.9,53.6c0.3,0.2-0.7-0.6-1.1-0.5c-0.9,0.2,0.6,2.9,0.5,3.2    c-0.1,0.2,0.4,0.4,0.7,0.7c0,0,2.9,1.3,3.4,1c0.8-0.6,0.3-2.1,0.4-3.1c0.1,0.2-1.6-0.7-1.5-0.5c0.2,1.2,0.4,2.2-0.1,2.2    c-0.3,0-1.5-0.2-1.7-0.4C133.1,55.3,132.9,54.5,132.9,53.6L132.9,53.6z"/>
		<path fill-rule="evenodd" clip-rule="evenodd" fill="#A88C60" d="M124.8,52c0.3,0.1-1.6-0.5-1.9-0.3c-0.7,0.4,3.2,3.2,3.2,3.5    c0,0.1,0.2,0.3,0.7,0.4c0,0,3.6,0.8,3.9,0.4c0.7-0.8-0.6-2.2-0.7-3.2c0.1,0.1-1.6-0.5-1.5-0.2c0.5,1.1,0.7,1.7,0.2,1.9    c-0.2,0.1-1.5,0.2-1.7,0C126.2,53.7,125,52.8,124.8,52L124.8,52z"/>
		<path fill-rule="evenodd" clip-rule="evenodd" fill="#A88C60" d="M116.2,66.6c0.2,0.4-0.2-1,0-1c1.2,0.1,2.3,0,2.7-0.2    c0.2-0.1,0.5,0.2,0.7,0.7c0.2,0.7,1.7,4.3,0.9,5.1c-0.9,1-2.7,0.2-3.7,0.3c0.3,0.1-0.7-0.9,0.1-1.2c1.1-0.2,2.4,0,2.6-0.3    c0.2-0.6-0.5-2.8-0.9-3C117.6,66.7,117,66.6,116.2,66.6L116.2,66.6z"/>
		<path fill-rule="evenodd" clip-rule="evenodd" fill="#A88C60" d="M117.1,73.8c0.3,0.4,0.2-1.1,0.3-1.1c1.1-0.2,2.4-0.1,2.8,0    c0.9,0.2,1.2,1.1,1.3,1.6c0.2,1.7,0.2,1.6-0.4,2.6c-0.7,1.2-1.4,2.6-2.3,2.9c0.2,0.1-0.4-1.5,0.1-2.2c0.7-1,1.2-1.6,1.2-1.9    c0.4-1.2-0.4-1.7-0.8-1.8C118.3,73.8,117.9,73.8,117.1,73.8L117.1,73.8z"/>
		<path fill-rule="evenodd" clip-rule="evenodd" fill="#A88C60" d="M106.3,58c0.5,0.2-1.8-0.7-1.8-1c0.1-0.6,4.3,0.4,3.8-0.6    c-0.2-0.2,0.7-0.2,1.8,0.4c0.3,0.1,2.9,1.4,2.9,1.9c0,0.7-0.9,0.8-2.3,0.9c0.3,0.1-1.2-0.1-1.4-0.5c-0.2-0.7,2.7,0.2,2.3-0.3    c0,0-1.4-1.2-2.3-1.1C108.6,57.7,106.6,57.5,106.3,58L106.3,58z"/>
		<path fill-rule="evenodd" clip-rule="evenodd" fill="#A88C60" d="M95.9,65c0.1,0.2-0.1-0.7,0.5-0.8c0.9-0.2,9.1,3.2,8.5,4.6    c0,0-0.7,1.4-1.7,2.5c-1.6,1.7-6.1-2.8-8.4-3.6c0.3,0.2-0.3-0.8,0.2-0.7c2.1,0.2,6.7,2.7,7.5,3.1c0.7,0.2,1.2-1.2,0.9-1.5    C102.1,67.2,98.1,65,95.9,65L95.9,65z"/>
		<path fill-rule="evenodd" clip-rule="evenodd" fill="#A88C60" d="M95.2,69.4c0.1,0.2-0.2-0.5,0.2-0.7c0.8-0.2,6.5,2.6,5.7,4    c0,0-0.9,1.9-2.1,2.5c-0.8,0.4-2.1-2.4-3.3-3.3c0.3,0.2-0.2-2,0.3-1.1c0.7,1.2,1.9,2.2,2.6,2.5c0.5,0.2,1.2-0.8,1-0.9    C98.4,71.3,97,70.2,95.2,69.4L95.2,69.4z"/>
		<path fill-rule="evenodd" clip-rule="evenodd" fill="#A88C60" d="M94.9,73.3c-0.1,0.2,0.1-0.6,0.5-0.5c0.7,0.2,2.7,2.9,1.8,3.7    c0,0-1.2,1.2-2.2,1.3c-0.7,0.1-1-2.2-1.7-3.2c0.2,0.2,0.8-1.6,0.9-0.8c0.2,1.1,0.5,0.9,1.1,2.2c0.2,0.3,0.3-0.1,0.3-0.5    C95.8,74.1,95.9,74.4,94.9,73.3L94.9,73.3z"/>
		<path fill-rule="evenodd" clip-rule="evenodd" fill="#A88C60" d="M102.3,54.6c0.2,0.1-0.3-0.3-0.1-0.6c0.3-0.4,3.3-0.8,3.5,0.2    c0,0,0.4,1.4,0,2.2c-0.2,0.5-2-0.1-3-0.1c0.2,0-0.8-1.3-0.2-1.1c0.9,0.3,0.9,0.1,2,0.2c0.4,0,0.2-0.2-0.2-0.5    C103.3,54.3,103.7,54.3,102.3,54.6L102.3,54.6z"/>
		<path fill-rule="evenodd" clip-rule="evenodd" fill="#A88C60" d="M97.6,77.5c-0.2,0.2,0.7-1.3,1-1c0.5,0.7,0.8,3.8-1.9,6.1    c-0.4,0.4-2.7,0.7-3-0.5c-0.2-0.8,0.3-2.2,2-4c-0.1,0.3,1.4-1.3,1-0.6c-0.7,1.1-1,2.1-1.4,3.5c-0.1,0.3,0.4,0.9,1.2-0.3    C97.5,79.3,97.4,79.6,97.6,77.5L97.6,77.5z"/>
		<path fill-rule="evenodd" clip-rule="evenodd" fill="#A88C60" d="M103.5,72.8c-0.2,0.2,0.9-1.7,1.1-1.2c0.4,1.7,1.2,7.1-0.5,9.5    c-0.6,0.7-3.7,1.4-4.6-0.1c-0.5-0.8,0.3-3.3,0.7-5.6c0,0.4,1.4-0.9,1.1-0.2c-0.5,1.3-0.8,3.2-0.3,4.6c0.1,0.2,1.7,0.7,2.2-0.5    C103.9,77.8,103.8,75.1,103.5,72.8L103.5,72.8z"/>
		<path fill-rule="evenodd" clip-rule="evenodd" fill="#A88C60" d="M97.9,93.3c0.2,0.4-1-0.6-1.2,0.3c-1.2,4-0.3,9.3,2,12.9    c0.7,1.1,4.3,2.4,5.8,0.6c1.1-1.3-0.1-5.1-0.9-8.9c0,0.1,0.2-3.2,0-4.1c-0.3-0.9-1.4,0.1-1.5,0.2c-0.3,0.2-0.3,3.3-0.3,3.7    c-0.2,3.2,2.1,4.1,1.2,8c0,0-2.8,0-3.7-1.2C97.2,101.7,97.5,96.8,97.9,93.3L97.9,93.3z"/>
		<path fill-rule="evenodd" clip-rule="evenodd" fill="#A88C60" d="M92.1,92.1c0.5-0.3,0.2-2.5-1.4,0.5c-2.5,4.6,1.9,8.4,2.2,12.9    c0.1,1.2,2.2,3.2,3.5,1.1c1.2-2-1.2-5-1.7-9c0,0.2,0.8-3.9,0.6-4.7C95,92,94.1,92.4,94,92.4c-0.2,0.2-0.7,4.1-0.8,4.3    c-0.2,3.2,2.2,4.6,1.7,8.5c0,0-1,0.6-1-0.9C93.9,101.6,88.6,98.1,92.1,92.1L92.1,92.1z"/>
		<path fill-rule="evenodd" clip-rule="evenodd" fill="#A88C60" d="M106.6,92.4c0.2,0.4-1-0.6-1.2,0.3c-1.2,3.8-0.3,8.9,2.1,12.4    c0.7,1.1,4.1,0.7,4.6-0.9c0.7-2.2,0.2-3.5-0.6-7.1c0,0.2,0.3-4.2,0-4.8c-0.3-0.7-1.2-0.2-1.2-0.1c-0.2,0.2,0,2.9-0.2,4    c-0.4,2.6,0.7,5.3,0.7,7.3c0,0-2,1.2-2.8-0.1C106,100.5,106.3,95.8,106.6,92.4L106.6,92.4z"/>
		<path fill-rule="evenodd" clip-rule="evenodd" fill="#A88C60" d="M113.8,90.9c0.2,0.2-1-0.5-1.3,0.2c-1.2,3.2-0.3,7.6,2.1,10.6    c0.7,0.8,3.3-0.6,3.8-1.8c0.8-1.7,0.9-2.3,0.1-5.1c0,0.1-1.7-4.9-2-5.5c-0.3-0.5-0.8,0.2-0.9,0.3c-0.2,0.2,1,3.3,1.2,4.1    c0.5,2.2,1,3,0.6,4.8c-0.2,0.3-1.7,1.8-2.1,0.8C114.1,96.7,113.4,93.8,113.8,90.9L113.8,90.9z"/>
		<path fill-rule="evenodd" clip-rule="evenodd" fill="#A88C60" d="M120.6,97.2c0.2,0.4,0-1.9,0.3-1.5c2.7,3.3,6.1,7.2,7.3,11    c0.3,0.9-0.3,4.2-1.9,4.3c-2.3,0-6.8-6.6-7.7-9c-0.3-0.5,0.8-1.2,1-1.2c0.2-0.1,5.1,8.1,6.4,8.3c0.1,0,1.4-1.6,0.8-3    C125.8,103.6,122.6,99.3,120.6,97.2L120.6,97.2z"/>
		<path fill-rule="evenodd" clip-rule="evenodd" fill="#A88C60" d="M116.5,103.2c0.1,0.3,1-1.4,1.2-1.1c2.5,4.2,5.3,7.3,6.1,11.1    c0.3,1.4-0.9,2.9-2.3,3.1c-2.4,0.2-8.1-7.7-9.4-10c-0.3-0.3-0.1-0.3,1.2-0.9c0.1-0.1,5.8,8.5,6.9,8.7c0,0,2.6,0.2,2-2    C121.4,109.4,118.4,105.3,116.5,103.2L116.5,103.2z"/>
		<path fill-rule="evenodd" clip-rule="evenodd" fill="#A88C60" d="M109.5,107.4c0.2,0.3,0.3-1.3,0.7-0.7c3.1,3.4,5.8,5.9,6.6,9.6    c0.2,1.3-0.2,2.4-1.5,2.7c-2.4,0.3-9.1-7.3-10.4-9.5c-0.1-0.2-0.1-0.3,1.3-0.9c0,0,6.7,8.6,7.8,8.7c0,0,2.1,0.2,1.2-2    C114.1,112.7,111.5,109.4,109.5,107.4L109.5,107.4z"/>
		<path fill-rule="evenodd" clip-rule="evenodd" fill="#A88C60" d="M99.5,113.6c0.1,0.2,0.5,0.6,0.9,1c0.1,0.2,0.5-0.3-0.3,0.9    c-0.3,0.2-0.5,0.3-1,0.3c-1.1,0-2.2-3.6-2-5.5c0,0,0.8,1.1,1.1,1.4c0.1,0.1,0,2,0.7,2.6c0,0,0.1,0.1,0.3-0.3    C99.7,113.2,99.2,113.7,99.5,113.6L99.5,113.6z"/>
		<path fill-rule="evenodd" clip-rule="evenodd" fill="#A88C60" d="M101.9,110c0.2,0.4,0.9-0.8,1.2-0.3c2.9,3.4,4.1,5.1,6.1,7.3    c2.2,2.4,1,2.7-0.2,2.3c-5.2-1.5-10.9-9.9-13-11.6c0,0,0.8,0.1,2,0.2c0,0,8.7,9.2,9.8,9.4c0,0,1.5,1.4,0.2-0.3    C106.3,114.8,104,112.1,101.9,110L101.9,110z"/>
		<path fill-rule="evenodd" clip-rule="evenodd" fill="#A88C60" d="M129.8,107.1c0.2,0.3-0.8,0.7-0.3,1.5c1.9,2.9,4.3,9.1,4.7,12    c0.5,3.2,1.6,2.5,2,1.3c2.4-6.2-1.2-17.3-3.5-19.6c0,0-0.2,0.2-0.9,0.7c0,0,5.4,7.8,4.1,16c0,0-0.2,1.1-0.8-0.3    C133.8,115.5,131.4,109.5,129.8,107.1L129.8,107.1z"/>
		<path fill-rule="evenodd" clip-rule="evenodd" fill="#A88C60" d="M125.3,114.8c0.3,0.3-1.2,0.5-0.7,1.2c1.8,3.4,3.2,6.9,5.4,9.3    c2.1,2.3,2.8,0.6,3-0.5c1.1-6.5-2-11.5-3.9-14.4c0,0-0.4,0.5-0.9,1.1c0,0,4.6,5.6,3.7,12.1c0,0-0.6,1.1-1.3,0.3    C127.8,121,126.8,118.7,125.3,114.8L125.3,114.8z"/>
		<path fill-rule="evenodd" clip-rule="evenodd" fill="#A88C60" d="M118.2,118.7c0.3,0.2-1.4,0.3-0.9,0.9c2.4,2.8,5.2,7.1,7.9,9    c2.4,1.8,3.1-0.2,2.8-1.1c-1.8-7.1-2.6-7.3-4.9-10.9c0,0-0.7,0.2-1.2,0.9c0,0,3.4,2.3,4.6,9c0,0-0.3,1.1-1.2,0.4    C122.4,124.9,120.5,122.2,118.2,118.7L118.2,118.7z"/>
		<path fill-rule="evenodd" clip-rule="evenodd" fill="#A88C60" d="M126.2,130.9c0.3,0.2-2.7-1.5-1.8-0.5c2.4,2.7,3.7,5.5,6.2,7.5    c2.7,2.2,3.1,0,3-1.1c-0.2-2.9-1.4-5.1-3.7-8.5c0,0-0.3,0.7-0.7,1.5c0,0,1.3,2.8,3,6.1c0.1,0.2-0.4,0.9-1.1,0.5    C128.7,135.1,128.3,134.1,126.2,130.9L126.2,130.9z"/>
		<path fill-rule="evenodd" clip-rule="evenodd" fill="#A88C60" d="M131.9,127.6c0.2,0.2-1.1-0.3-0.8,0.1c0.7,1.7,2.8,5.2,4.4,7.1    c1.5,1.7,1.6,0.5,1.4-0.5c-0.7-4.4-1.6-5.1-2.8-8c0,0-0.4,0.2-0.8,0.7c0,0,1.1,1,2.6,5.7c0,0,0,1.1-0.5,0.5    C133.5,131,133.4,130.4,131.9,127.6L131.9,127.6z"/>
		<path fill-rule="evenodd" clip-rule="evenodd" fill="#A88C60" d="M111.8,120.9c0.3,0.2-2.1-0.2-1.6,0.2c3.1,2.5,7,7.7,9.9,9.7    c1.9,1.3,2.3-0.5,2.1-1.3c-0.5-2.1-2-4.3-5.7-9c0,0-0.9-0.3-1.2,0.4c0,0,2.4,0.9,5.5,7.5c0,0-0.2,1.2-0.7,0.8    C117.6,127,114.7,124.1,111.8,120.9L111.8,120.9z"/>
		<path fill-rule="evenodd" clip-rule="evenodd" fill="#A88C60" d="M118,87.9c0.2,0.2-0.4-0.2-0.4,0.2c0,1.5,0.4,4,2,5.4    c0.4,0.3,1.3-0.1,1.7-0.6c0.6-0.7,1.2-1.6,0.6-2.8c0.3-0.2-1.4-4.8-2-4.8c-0.3,0-0.5,0.3-0.2,1.3c0,0.1,0.9,2.7,1,3    c0.3,1,0.3,1.2-0.1,2c-0.1,0.2-0.4,0.6-0.7,0.2C118.7,90.8,117.7,89.2,118,87.9L118,87.9z"/>
		<path fill-rule="evenodd" clip-rule="evenodd" fill="#A88C60" d="M122.4,92.8c0.2,0.1-0.6,1.5-0.4,1.7c2.3,3.2,6.8,10.2,7.2,9.4    c0.5-0.7,0.6-2.5-0.2-3.7c0.2-0.2-5.2-9.6-5.7-9.5c-0.3,0-0.6,0.8-0.1,1.7c0.7,1.4,5.1,6.6,4.6,7.9c0,0-0.5,0.4-0.7,0.2    C126.3,98.9,122.4,94.2,122.4,92.8L122.4,92.8z"/>
		<path fill-rule="evenodd" clip-rule="evenodd" fill="#A88C60" d="M100.6,83.6c-0.3,0.2,0.8-0.3,0.9,0.1c0.2,1.6-0.1,5.5-2,7.7    c-0.6,0.7-3.2,1-4.1-0.5c-0.7-1.1,1.6-6.6,3.2-9c0,0.4,0.8,0.7,0.1,1.7c-0.7,1-2.4,4.9-2,6.3c0,0.1,1.7,0.9,2.3-0.2    C99.8,88.5,100.6,86,100.6,83.6L100.6,83.6z"/>
		<path fill-rule="evenodd" clip-rule="evenodd" fill="#A88C60" d="M107,80.9c-0.2,0.3,1.4-0.5,1.4,0.1c-0.1,2,0.7,7.2-1.3,10.1    c-0.6,0.9-4.9,2.2-5.9,0.4c-0.6-0.9,1-5.5,1.5-8.3c0.1,0.5,1.1-1.1,0.9-0.2c-0.4,2.2-1.3,5.6-0.8,7.3c0,0.2,2.7,0.5,3.4-0.8    C107,87.9,107.3,83.7,107,80.9L107,80.9z"/>
		<path fill-rule="evenodd" clip-rule="evenodd" fill="#A88C60" d="M107.2,68.2c-0.1,0.3-0.1-2.1,0.5-1.2c2.1,3.2,4.6,7.8,3.7,10.2    c-0.3,0.9-3.5,3.6-4.7,1.9c-0.6-0.9-1-5.1-1.2-8.3c0.2,0.6,0.2-1.4,0.5-0.4c0.5,1.9,1,5.1,1.7,6.7c0.1,0.1,2-0.3,2.4-1.8    C110.5,73.4,108.7,70.4,107.2,68.2L107.2,68.2z"/>
		<path fill-rule="evenodd" clip-rule="evenodd" fill="#A88C60" d="M128.9,58.6c0.2,0.2-2.2-1.5-1.2-1.2c3.7,0.7,12.6,3.6,13.6,5.4    c0.3,0.7,0.7,4.6-1.2,4.2c-1.1-0.2-8.3-3.6-10.6-5.4c0.5,0.2-0.7-1.6,0-1.2c1.6,0.7,8.3,4.3,9.9,4.7c0,0,0.3-1.7-0.4-2.7    C138,61.1,131.4,59.2,128.9,58.6L128.9,58.6z"/>
		<path fill-rule="evenodd" clip-rule="evenodd" fill="#A88C60" d="M143.2,67.7c0.1,0.3-1.4-2.4,0.2-1.9c4,1.1,18.8,16.6,19.3,18.7    c0.7,2.6-2.1,4.6-4.1,2.3c-5-5.4-12.5-13.3-16-15c0.4,0.4-0.3-1.6,0.3-2.4c0.7-1,15.3,14.9,16.4,15.8c0,0,1.7,0.5,1.3-0.7    C160.2,82.9,145.4,69,143.2,67.7L143.2,67.7z"/>
		<path fill-rule="evenodd" clip-rule="evenodd" fill="#A88C60" d="M141.7,74.7c0,0.3-0.7-1.6,0.6-1.2c3.2,0.8,13.2,12,13.2,13.3    c0,2.4-3.4,3.5-4.6,2.5c-4.2-3.4-8-7.6-10.7-8.9c0.2-1.2-0.3,1.5,0.2-2.1c0.1-0.9,10,8.8,10.6,9.4c0,0,3.2,0.7,3.1-1.3    C154,85.4,143.5,75.8,141.7,74.7L141.7,74.7z"/>
		<path fill-rule="evenodd" clip-rule="evenodd" fill="#A88C60" d="M138.7,82.2c0.1,0.2,0.2-1.4,0.5-1.3c3.2,0.7,8.9,7.9,8.9,9.1    c0.1,2.4-3.4,3.5-4.6,2.5c-4.1-3.3-4.8-3.8-7.6-5.1c0.5-0.8,0.6-0.7,0.8-1.7c0.1-0.7,6.1,4.6,6.9,5.2c0,0,2.7,0.3,2.7-1.6    C146.2,88.5,140.4,83.1,138.7,82.2L138.7,82.2z"/>
		<path fill-rule="evenodd" clip-rule="evenodd" fill="#A88C60" d="M134.6,88.9c0.1,0.2,0.3-1.2,0.8-1.1c3.1,1.2,5.2,5.1,5.3,6.2    c0.1,2.4-3.9,3.1-5.1,2.2c-4.1-3.2-1.7-1.7-4.4-3c0.4-0.8,0.6-0.4,0.8-1.2c0.3-0.7,3.7,2.2,4.3,2.8c0,0,2.2,0.4,2.5-1.3    C139,92.7,136.2,89.8,134.6,88.9L134.6,88.9z"/>
		<path fill-rule="evenodd" clip-rule="evenodd" fill="#A88C60" d="M148.3,59.7c0.1,0.4,1.5-1.8,1.8-1.7    c18.1,11.1,21.2,27.2,27.3,30.9c2.7,1.5-7.3,0.2-9.7-1.6c-6.3-4.8-15.2-19.2-24.3-23.5c0.5,0.6-0.8-2.1-0.7-2.1    c13.1,4.7,22.2,22.3,25.8,24.4c0,0,4.2,1.8,3.6,0.2C169.2,79.2,155.1,61.3,148.3,59.7L148.3,59.7z"/>
		<path fill-rule="evenodd" clip-rule="evenodd" fill="#A88C60" d="M130.7,65c0.2,0.3-0.9-1.2-0.3-1.2c4.4,0.9,9.5,4.1,10.5,5.5    c0.4,0.6,0.7,4.6-1.2,4.3c-0.8-0.1-5.2-1-7.6-2.9c0.5,0.2-0.2-0.3-0.3-1.7c-0.1-0.5,5.6,3.2,7.1,2.7c0,0,1.1-1.6,0.4-2.5    C138.5,68.1,133.1,65.8,130.7,65L130.7,65z"/>
		<path fill-rule="evenodd" clip-rule="evenodd" fill="#A88C60" d="M132.5,73.3c0.1,0.2-0.2-1.2,0.2-1.2c2.9,0.8,5.3,2.9,6,4.2    c0.3,0.5-0.2,4.8-1.3,4.1c-2.5-1.4-3.1-0.5-5.1-2.4c-0.1-0.7,0.1-0.6,0.1-1.7c0.1-0.4,3.7,3,4.6,2.6c0,0,0.7-1.5,0.2-2.4    C136.6,75.5,134.1,74.1,132.5,73.3L132.5,73.3z"/>
		<path fill-rule="evenodd" clip-rule="evenodd" fill="#A88C60" d="M128.9,84.2c0.3,0-0.7,0.8-0.5,1.1c2,2.1,3.4,2.7,4.8,2.5    c0.4,0,3.1-3.7,2.4-4.6c-0.2-0.4-1.3-2.2-4.3-2.8c0.1,0.2-0.6,1.9-0.3,1.3c0.1-0.2,2.7,0.5,3,2.1c0,0-0.6,2.2-1.4,2.2    C131.5,86.2,130.3,85.2,128.9,84.2L128.9,84.2z"/>
		<path fill-rule="evenodd" clip-rule="evenodd" fill="#A88C60" d="M124.9,89.7c0.2-0.1-0.4,0.7-0.3,0.8c1.8,2,2.3,3.2,3.7,3    c0.2-0.1,3.5-3.2,3-4.2c-0.1-0.2-0.7-1.6-3.4-3.2c0.1,0.2-0.8,1.8-0.7,1.2c0-0.1,2.5,0.6,2.9,2.1c0,0-1.3,2.2-2.1,2.3    C127,92,126.3,90.7,124.9,89.7L124.9,89.7z"/>
		<path fill-rule="evenodd" clip-rule="evenodd" fill="#A88C60" d="M113.7,77.2c-0.2,0.3,0.7-1,1-0.1c1.5,3.5,0.8,8.1-0.3,10.7    c-0.5,1.1-3.4,4-4.6,1.2c-0.4-0.9-0.5-6-0.1-9.1c0.1,0.5,1-1.1,1-0.2c0.2,1.8-0.1,8.7,0.7,8.5c0.5-0.2,1.7-0.5,2.3-2.3    C114.4,84.1,114.1,80.1,113.7,77.2L113.7,77.2z"/>
		<path fill-rule="evenodd" clip-rule="evenodd" fill="#A88C60" d="M138.3,117.4c0.6,0.1-0.1,1.4,0.3,1.7c4.2,3,19.6,14.4,23.2,15.3    c1.5,0.3,9-2,6.1-4c-0.9-0.7-25.7-16-29.7-17.8c0.7,0.5-0.1,1.1,0.6,1.5c1.7,1.2,28.3,16.9,27.6,17.3c-0.5,0.2-2.7,2-4.9,1.2    C159.1,131.8,141.1,119.7,138.3,117.4L138.3,117.4z"/>
		<path fill-rule="evenodd" clip-rule="evenodd" fill="#A88C60" d="M137.5,122.1c0.5,0.1-0.8,0.7-0.3,1.2    c3.2,2.7,14.5,12.5,17.4,13.4c1,0.2,6.8,0.4,5-1.5c-0.7-0.7-2.7-0.9-1.1-0.6c0.4,0.1-2.7,1.1-4.3,0.3    C152.1,134.1,139.7,124.2,137.5,122.1L137.5,122.1z"/>
		<path fill-rule="evenodd" clip-rule="evenodd" fill="#A88C60" d="M135.5,125c0.3,0.1-1.7,0.1-0.5,1.1c2.5,2,11.7,11,13.8,11.6    c0.7,0.2,5.2,0.2,4.6-0.3c-0.4-0.4-1.3-0.7-1.5-0.8c0,0-1.7,0.3-2.8-0.1C147.7,135.8,137.2,126.6,135.5,125L135.5,125z"/>
		<path fill-rule="evenodd" clip-rule="evenodd" fill="#A88C60" d="M138.3,120.3c0.3,0.1-1,0.5,0.1,1.3c2.3,1.9,16.8,12,16.7,11.9    c-0.2-0.4,1.9,0,1.5-0.2C155.4,132.9,139.9,122.1,138.3,120.3L138.3,120.3z"/>
		<path fill-rule="evenodd" clip-rule="evenodd" fill="#A88C60" d="M136.5,123.6c0.2,0.1-0.8,0.2-0.2,0.9c1.5,2,12.6,11.1,13,10.8    c0.2-0.2,1.6,0.1,1.2-0.1C149.7,134.8,137.8,125.2,136.5,123.6L136.5,123.6z"/>
		<path fill-rule="evenodd" clip-rule="evenodd" fill="#A88C60" d="M136.5,128.7c0.2,0.1,0.1,1.2,0.4,1.7c3.4,4.6,7.6,7.2,8,7.4    c2.1,0.6,2-0.2,1.8-0.4C143.8,135.7,145.1,137.2,136.5,128.7L136.5,128.7z"/>
		<path fill-rule="evenodd" clip-rule="evenodd" fill="#A88C60" d="M138.2,114.9c0.3,0.1-1,0.4,0.7,1.9c1.9,1.8,22.6,14.7,22.6,14.6    c-0.1-0.4,1.9-0.5,1.6-0.7C162,130.4,139.9,116.7,138.2,114.9L138.2,114.9z"/>
		<path fill-rule="evenodd" clip-rule="evenodd" fill="#A88C60" d="M108.7,65.3c0,0.3-1.2-2.1,0.1-1.1c2.9,2.2,7.5,6.4,7.4,9.1    c-0.1,1.2-3.5,3.9-3.7,2.8c-0.2-1.2-0.2-0.9-0.1-1.4c0,0,1.9-0.7,1.9-2.2C114.3,70.8,110.7,67,108.7,65.3L108.7,65.3z"/>
		<path fill-rule="evenodd" clip-rule="evenodd" fill="#A88C60" d="M95,84c0.1,0.2,0-1-0.7-0.2c-1.8,1.8-3.7,4.5-3,6.1    c0.6,1.4,3.6,1.9,3.5,1.1c-0.1-0.7-0.1-0.6-0.3-0.8c0,0-1.7-0.2-2-1.1C92.1,88,93.8,85.3,95,84L95,84z"/>
		<path fill-rule="evenodd" clip-rule="evenodd" fill="#A88C60" d="M122.2,132.2c0.3,0-1.2,0.5-0.5,1.2c1.2,1.3,2.7,3.2,3.8,4.2    c0.7,0.5,2-0.7,1.9-1c-0.1-0.6-0.2-0.7-0.6-0.8c0,0-1.2,0.6-1.6,0.2C124.8,135.3,123.1,133.6,122.2,132.2L122.2,132.2z"/>
		<path fill-rule="evenodd" clip-rule="evenodd" fill="#A88C60" d="M115.8,76c-0.3,0.3,0.2-2.3,0.7-0.8c1,3.5,2.7,9.9,0.4,11.8    c-0.8,0.7-1.5,1.1-1.2,0.4c0.4-0.9,0.2-1.5,0.3-1.6c0,0-0.3,0.2,0.3-0.7C117.4,83.8,116.3,78.6,115.8,76L115.8,76z"/>
		<path fill-rule="evenodd" clip-rule="evenodd" fill="#A88C60" d="M116.2,69.1c-0.1-0.2,0.1,0.8-0.2,1.1c-0.2,0.2-0.9-0.1-1.2-1.1    c-3-11.7-15-8.5-15-11.2c0-2.7-0.2-4.3,0.7-6c0.2-0.7,2.4-0.8,4.1-1c2.2-0.2,0.1,1.7-0.2,1.5c-0.6-0.3-2.3-0.2-2.6,0.6    c-0.3,1.4-0.9,2.9-0.2,4.1C102.2,58.2,113.1,56.4,116.2,69.1L116.2,69.1z"/>
		<path fill-rule="evenodd" clip-rule="evenodd" fill="#A88C60" d="M123.5,65.5c1-0.2,2.2,7.2,2.1,9.7c-0.1,0.7-3.9,7.3-6.1,8.4    c-0.1,0-0.2-2.7,0-2.7c1.9-0.8,3.9-4.6,3.9-5.9c-0.1-5.1-0.7-5.8-2.1-9.1c-4.1-10.7-13.7-9.5-14.6-11.5c-1.2-2.8-0.1-4.3,0.7-6    c0.3-0.6,19.7-3.9,37,6.1c0.9,0.5,3.6,1.4,5.9,1.2c0.6,0-3.5,3.4-6.1,4.1c-0.8,0.2-3.7,1.3-6-0.3c0,0-0.7-1.9-0.6-2.4    c0.2-0.6,2.5,0.2,1.9,0c-0.3-0.1-0.1,1.4,0.3,1.4c1.4,0.1,4.8-0.8,4.8-0.8c-12.5-9.6-35.6-8.7-35.8-8c-0.6,1.7-1.2,2.9-0.2,3.8    C109.7,54.3,120.3,53.9,123.5,65.5L123.5,65.5z"/>
		<path fill-rule="evenodd" clip-rule="evenodd" fill="#A88C60" d="M90.4,72.9c0.1-0.2,0.2,0.9,0.9,0.7c2.3-0.8,5.1-2.3,3.2-4.1    c-0.2-0.1-2.2-0.3-2.6,0c-1,1.1-4.4,2.4-6.9,3.9c0.2-0.2-1.7,0.9,0.1,0.7c2.5-0.2,8.5-5.1,8.4-3.4C93.5,71.6,92.6,71.6,90.4,72.9    L90.4,72.9z"/>
		<path fill-rule="evenodd" clip-rule="evenodd" fill="#A88C60" d="M114.1,61.7h1.4l0.5,1c-0.5,0-0.9,0.1-1.5,0L114.1,61.7    L114.1,61.7z"/>
		<path fill-rule="evenodd" clip-rule="evenodd" fill="#A88C60" d="M116.2,53.8l2.3-0.1l1.4,0.9c-0.8,0-1.3,0.1-2.3,0L116.2,53.8    L116.2,53.8z"/>
		<path fill-rule="evenodd" clip-rule="evenodd" fill="#A88C60" d="M116.6,67.5l1.4,0.1l0.4,1.7c-0.4,0.1-1,0.1-1.5-0.1L116.6,67.5    L116.6,67.5z"/>
		<path fill-rule="evenodd" clip-rule="evenodd" fill="#A88C60" d="M117.7,75.1l1.2-0.2l0.2,1c-0.4,0-0.2,0.7-0.8,0.6L117.7,75.1    L117.7,75.1z"/>
		<path fill-rule="evenodd" clip-rule="evenodd" fill="#A88C60" d="M121.9,83.5c1.6,0.7,2.7,1.8,3.8,3c-0.1,0.8-0.9,1.9-1.9,2.7    c-0.3-0.5-0.6-1.2-0.9-1.7c0.2-0.4,0.7-0.4,1-0.7c-0.6-1.1-1.6-1.7-2.7-2.5C121.4,84.1,121.6,83.8,121.9,83.5L121.9,83.5z"/>
		<path fill-rule="evenodd" clip-rule="evenodd" fill="#A88C60" d="M130.3,93.9c1.7,0.6,3.2,2.4,4.1,3.7c0,0.8-0.9,1.5-1.9,2.3    c-2.5,4-1.6,0.8-1.6-0.2c0.2-0.5,1.2-2.1,1.5-2.3c-0.6-1-1.8-1.7-2.9-2.5C129.8,94.5,130.1,94.2,130.3,93.9L130.3,93.9z"/>
		<path fill-rule="evenodd" clip-rule="evenodd" fill="#A88C60" d="M125.3,79c1.2,0.7,2.5,1.4,3.8,1.9c0.2,0,0.5,0,0.7-0.1    c-0.9,1.9-2.1,3.2-3.5,4.6c-1.2-0.9-2.3-1.7-3.5-2.7c0.2-0.3,0.3-0.7,0.7-1c0.6,0.9,1.7,1.6,2.7,2.1c0.4-0.6,0.7-1.2,1.2-1.8    c-1.2-0.6-1.8-1.5-2.6-2.2C125,79.5,124.9,79.3,125.3,79L125.3,79z"/>
		<path fill-rule="evenodd" clip-rule="evenodd" fill="#A88C60" d="M126.4,72.1c1.5,0.2,2.5,1.2,3.9,1c0.2-0.2,0.3-0.4,0.4-0.7    c0.3,2.7,0.3,6-0.4,6.6c-1.6,0.2-2.7-0.2-4.2-0.9c0.1-0.6,0.4-1.4,0.5-1.9c1,0.6,1.6,0.8,2.7,0.8c0.1-0.8,0-1.8,0.2-2.7    c-1.3,0-1.9-0.7-2.9-0.9C126.7,72.9,126.3,72.7,126.4,72.1L126.4,72.1z"/>
		<path fill-rule="evenodd" clip-rule="evenodd" fill="#A88C60" d="M124.8,64.2c1.4,0.2,2.4,0.8,3.7,0.3c0.2-0.2,0.2-0.3,0.3-0.6    c0.7,2.6,1.7,5.8,1.7,7.6c-1.6,0.5-3.2-0.4-4.9-0.8c0-0.6,0.3-1.4,0.2-1.9c1.1,0.3,1.7,0.5,2.8,0.2c-0.2-0.8-0.3-2.3-0.4-3.2    c-1.2,0.3-2-0.2-3-0.3C125.3,65,124.8,64.8,124.8,64.2L124.8,64.2z"/>
		<path fill-rule="evenodd" clip-rule="evenodd" fill="#A88C60" d="M110.6,51.4c1.2-0.7,6-0.2,7.4-0.3c0-0.3,0.9,0.1,1.2-0.5    c2.2,1.5,4.9,4.6,6.1,5.9c-0.8,1.6-2.8,0.2-4.6,0.6c-0.7-0.9-0.7-0.7-1-1.2c1.1-0.4,2,0.2,2.9-0.2c-0.8-0.5-2.7-2.2-3-3.1    c-0.9-0.2-6.7-0.4-7.7-0.2C111.6,52,111.1,51.9,110.6,51.4L110.6,51.4z"/>
		<path fill-rule="evenodd" clip-rule="evenodd" fill="#A88C60" d="M121.9,58.2c1.4-0.2,2.1,0.1,3.7-0.2c0.1-0.2,0.2-0.5,0.3-0.7    c1.6,1.8,2.3,4.1,2.3,5.5c-1.4,0.5-2.2,0.1-3.9-0.1c-0.2-0.4-0.3-1-0.5-1.4c1.2,0.2,1.8,0.2,2.7-0.2c-0.3-0.6-0.6-1.3-0.8-1.9    c-1.1,0.1-1.7,0.1-2.7,0.2C122.8,59,121.9,58.6,121.9,58.2L121.9,58.2z"/>
		<path fill-rule="evenodd" clip-rule="evenodd" fill="#A88C60" d="M81.9,86.8c-0.2,0.2,0.4-0.6-0.1-1.7c-0.1-0.1-0.5,1.2-1.1,1.6    c-3.1,3.9-9,5.1-11.7,11.3c-1.9,4.5-2,9.5,0.2,14c2.5,5.4,13.1,3.2,18.5,3.2c1.6,0.1,0.6,2.7,0.6,3.6c0.5-0.2,1.3-1.8,1.4-1.9    c1.1-2.7-0.7-3.6-1.4-3.5c-9.3,1.2-14.7,0.7-16.9-2.9c-3.2-5.4-2.2-9-0.2-11.7C75.7,92.4,77,93.8,81.9,86.8L81.9,86.8z"/>
		<path fill-rule="evenodd" clip-rule="evenodd" fill="#A88C60" d="M175.5,91.1c0.2,1.8,1.4,4.6,2.2,6.9c0.4,1,0.9,2.7,0.8,3.3    c-1.4,11-0.1,29.8-2.6,31.4c0-0.6-0.2-1.2-0.2-1.8c0.3-9-3.4-17.4-4.2-26.1c-0.1-0.7-0.2-1.8-0.6-2.3c-1.7-3-5.1-2.8-7.5-13.9    c0.4,0,1-1.2,1.2-1c0.7,0.9,1,0,1.1,1.1c0.7,8.2,4.7,9,6.8,12.4c0.2,0.4,1,1.6,0.9,2.9c-0.2,3,2.1,13.4,2.2,15.5    c0.1,1,0.8,1.7,0.8,0.6c-0.3-6.7-0.1-11.8-0.3-17.2c0-0.3,0.1-1.4,0.1-1.9c0-2-1.2-3.9-3.1-10.3L175.5,91.1L175.5,91.1z"/>
		<path fill-rule="evenodd" clip-rule="evenodd" fill="#A88C60" d="M169.9,103.7c1.7,11.2,2.8,13.7,1.7,24.9    c-0.2-0.4-0.6-0.9-0.6-1.7c-0.2-7.9-4.8-14-6.2-22.3c-0.1-0.3,0.2-2-1-3.5c-1.9-2.6-3.8-2.9-8.5-11c0.6-0.4,2-3,2.2-0.7    c0.9,6,5.9,7.6,8.1,10.6c0.2,0.2,0.4,2.4,0.5,3.6c0.3,2.9,2.8,9.7,3.1,11.7c0.1,0.8,1,1.2,0.8,0.2c0.2-6.8-1.2-8.5-2.4-13.6    C167.3,100.7,169.8,102.9,169.9,103.7L169.9,103.7z"/>
		<path fill-rule="evenodd" clip-rule="evenodd" fill="#A88C60" d="M162.4,102c2.1,8.3,4.3,12.4,3.7,23.7c-0.2-0.4-0.6,0.3-0.7-1.6    c-0.4-6.6-5.1-10.4-6.9-20.3c-0.2-1.2-0.9-0.7-1.7-1.6c-3-4-3.5-1.4-8.5-9.3c0.5-0.4,0.2-2.8,1.5-1c4,6,5.4,5.3,7.6,8.2    c0.2,0.2,1,0.6,1.7,1.4c2.2,2.7,1.9,8.5,4,12c0.4,0.7,1.1,1.2,0.9,0.2c-0.9-6.9-1.8-5.6-3.2-12.6    C160.5,99.9,162.4,101.3,162.4,102L162.4,102z"/>
		<path fill-rule="evenodd" clip-rule="evenodd" fill="#A88C60" d="M155.9,102.6c2,6,2.1,6,3,14.3c-1.2-0.3-1.2-0.5-1.3-1.1    c-1.2-5.7-2.9-6.1-5-10.5c-0.2-0.2-1.9-1.7-2.4-2c-3-2-4-1.1-8.6-6.2c0.2-0.3,0.5-2.9,1.3-1.6c2.2,4,2.6,2.9,4.7,4.5    c0.2,0,2.3,0.7,2.9,1c2.2,0.9,4.7,5.5,5.5,7.9c0,0,1.1,0.4,0.5-1.1c-2-4.8-0.2-2.3-2.7-6.6C153.4,100.7,155.8,102.1,155.9,102.6    L155.9,102.6z"/>
		<path fill-rule="evenodd" clip-rule="evenodd" fill="#A88C60" d="M148.2,103.3c2.5,4.2,2.7,4.1,4.5,10.4c-0.9-0.1-1-0.3-1.2-0.6    c-3.2-4.1-3.9-4.1-5.8-7.3c-0.1-0.2-1.2-1.2-1.7-1.4c-2.6-1.2-4.7-0.8-9-4.1c0.2-0.3,1-2.2,1.7-1.2c2.2,2.8,3.2,2,5.1,2.9    c0.1,0,1.1,0.2,1.5,0.2c2.2,0.5,4.4,4.5,5.8,6c0,0,0.8,0.1,0.2-1c-2.2-3.5-0.2-0.7-2.7-3.6C146.3,103.2,148,103.1,148.2,103.3    L148.2,103.3z"/>
		<path fill-rule="evenodd" clip-rule="evenodd" fill="#A88C60" d="M170.8,91.3c0.5,1.7,1.9,4.8,1.9,6c-1.3-0.2-4.8-5.1-5.2-8.1    C167.2,89.2,170.8,90.1,170.8,91.3L170.8,91.3z"/>
		<path fill-rule="evenodd" clip-rule="evenodd" fill="#A88C60" d="M161.4,89.2c0.5,1.7,1.3,5.1,3,7.9c-1.2-0.1-4.9-5.5-5.3-8.4    C158.8,88.7,161,88.9,161.4,89.2L161.4,89.2z"/>
		<path fill-rule="evenodd" clip-rule="evenodd" fill="#A88C60" d="M153.9,90.9c0.7,1.5,2.4,4.1,3.8,7.1c-2.1-0.6-4.6-4.4-5.9-6.9    C151.6,91.1,153.6,90.6,153.9,90.9L153.9,90.9z"/>
		<path fill-rule="evenodd" clip-rule="evenodd" fill="#A88C60" d="M146.6,94.1c0.2,1.3,1.6,2.7,3.9,5.1c-1.7-0.2-5-3-6-5.1    C144.7,94.1,146.3,93.8,146.6,94.1L146.6,94.1z"/>
		<path fill-rule="evenodd" clip-rule="evenodd" fill="#A88C60" d="M139.7,97.5c0.2,0.7,0.8,1.5,2.2,2.8c-1-0.2-3.2-1.2-3.7-2.3    C138.1,97.9,139.5,97.4,139.7,97.5L139.7,97.5z"/>
		<path fill-rule="evenodd" clip-rule="evenodd" fill="#A88C60" d="M109.3,121.6c0,2.4,0.5,3.4,0.6,3.7c0.8,2.3,1,3.3,2.2,5.1    c0.5,0.6,0.7,0.7,1.9,0.7c0.8-0.1,0.5-2.8,0.6-4.3c-0.3-0.1-0.5-0.4-0.9-0.6c-0.2,0.4,0.3,2.5-0.2,3.4c-0.1-0.1-0.2,0-0.3,0    c-1.1-0.6-1.3-1.7-1.6-2c-0.7-1.4-1.2-3-1.4-4.6C110.1,123,109.2,121.6,109.3,121.6L109.3,121.6z"/>
		<path fill-rule="evenodd" clip-rule="evenodd" fill="#A88C60" d="M102.8,127.2c-1.5-0.2-4.4-0.6-5.1-0.6c-1.5-0.1-2-0.1-3.1,0.5    c-0.4,0.2-1.2,0.7-0.2,1.3c0.3,0.7,4.3,0.5,6.1,1.1c0-0.2-0.1-0.4,0.1-0.7c-0.2-0.2-3.6-0.8-4.2-0.9c-0.1,0-0.5,0.1-0.4-0.5    c0.1-0.2,0.4-0.2,0.6-0.3c0.9,0,3.6,0.2,5.1,0.9C101.7,128,102.8,127.1,102.8,127.2L102.8,127.2z"/>
		<path fill-rule="evenodd" clip-rule="evenodd" fill="#A88C60" d="M102.8,121.9c-0.7-0.1-2,0-2.2,0.1c-1.2,0.6-0.7,0-1.4,0.6    c-0.3,0.3-0.9,0.6-0.8,2.3c0.2,1.1,3.4,0.7,5.1,1.7c0-0.2,0.3-0.2,0.5-0.7c-0.2-0.3-3.4-1-4.1-1.2c-0.3-0.6-0.2-0.2-0.1-1    c0-0.2,0.2-0.4,0.4-0.6c0.9,0,0.8-0.2,2.7-0.2C103.1,122.8,102.9,121.7,102.8,121.9L102.8,121.9z"/>
		<path fill-rule="evenodd" clip-rule="evenodd" fill="#A88C60" d="M102.2,120.7c-0.5-0.2-2.7-1.2-2.7-1.2c-0.7-0.6-0.5-0.3-0.7-0.8    c-0.1-0.2-1-1.7-0.8-2.2c1-0.7,1.7,0.6,3.1,0.6c-0.1,0.1,0.2,0.4,0.1,0.7c-0.2,0.2-0.5-0.1-1-0.2c-1.1-0.2-0.7-0.2-0.4,0.7    c0.1,0,0.5,0.4,0.6,0.6c0.5,0.3,0.6,0.3,1.7,0.8C102,119.8,102.1,120.7,102.2,120.7L102.2,120.7z"/>
		<path fill-rule="evenodd" clip-rule="evenodd" fill="#A88C60" d="M108.6,124.9c-0.9,0.1-2.3,1.1-2.5,1.2c-2,1.4-2.7,1.8-4,3.5    c-0.4,0.6-0.7,2.2,0.3,2.2c0.2,0.7,6.1-1.2,7.5-1.5c0-0.3-0.3-0.6-0.4-1.1c-0.5,0-4.8,1.7-5.6,1.4c0-0.2-0.2-0.6-0.2-0.7    c0.2-1.2,0.9-1.4,1.1-1.7c1.2-1,2.3-1.6,3.8-2.3C108.6,125.9,108.7,124.6,108.6,124.9L108.6,124.9z"/>
		<path fill-rule="evenodd" clip-rule="evenodd" fill="#A88C60" d="M102.1,116c0,1.7,1.2,4.1,1.2,4.3c0.8,1.6,1.2,2,2.4,3.2    c0.5,0.5,0.8,0.6,2,0.6c0.7-0.1,0.3-2.4,0.3-3.5c-0.3-0.1-0.5-0.4-1-0.6c-0.2,0.2,0.2,1.3,0.1,2.6c-0.2-0.1,0.2,0.6-0.6,0.2    c-0.9-0.4-1.2-1.1-1.3-1.2c-0.7-1-1.3-3.1-1.6-4.2C103.5,117.3,101.9,116,102.1,116L102.1,116z"/>
		<path fill-rule="evenodd" clip-rule="evenodd" fill="#A88C60" d="M112.6,127c-0.3-0.7-0.3-1.6-0.3-2.2c-0.3-0.3-0.7-0.7-0.9-0.9    v1.2c0,0,0.2,0.9,0.3,0.9C111.9,126.3,112.6,127.1,112.6,127L112.6,127z"/>
		<path fill-rule="evenodd" clip-rule="evenodd" fill="#A88C60" d="M105.5,129.4c0.7-0.3,3-1.1,3.7-1.2c-0.1-0.5-0.1-0.5-0.2-0.8    c-0.7-0.1-1.2,0-1.7,0.4c0,0-0.8,0.4-0.8,0.6C106.2,128.5,105.4,129.3,105.5,129.4L105.5,129.4z"/>
		<path fill-rule="evenodd" clip-rule="evenodd" fill="#A88C60" d="M105.3,125c-3.4,0.4-3.2-0.9-3.9-1c0-0.3-0.2-0.2-0.1-0.5    c0.7-0.1,1.6,0.5,2.2,0.5c0,0,0,0.3,1.7,0.7C105.6,124.7,105.3,124.9,105.3,125L105.3,125z"/>
		<path fill-rule="evenodd" clip-rule="evenodd" fill="#A88C60" d="M85.3,121.3c-0.3-1-0.2-1.3-0.2-2c0.1-1.3,2-2.7,2.3-2.7    c0.2,0.4-0.4,1.2-0.1,2.7c0.1,0.5,1.1,0.5,0.7,1.4C86.7,122,85.3,122,85.3,121.3L85.3,121.3z"/>
		<path fill-rule="evenodd" clip-rule="evenodd" fill="#A88C60" d="M85.4,127.8c0.7,0.3,0.8,0.5,1.3,0.6c0.9,0.2,1.8-0.7,1.8-1    c-0.2-0.2-1.5,0.1-1.9-0.6c-0.2-0.2-1.1-0.2-1.7-0.1C83.8,127.4,85,127.6,85.4,127.8L85.4,127.8z"/>
		<path fill-rule="evenodd" clip-rule="evenodd" fill="#A88C60" d="M83.4,128.6c0.4,0.3,0.6,0.4,0.9,0.6c0.7,0.2,1.3-0.5,1.4-0.7    c-0.2-0.2-1.2,0-1.4-0.5c-0.1-0.2-0.7-0.2-1.2-0.2C82.3,128.2,83.1,128.5,83.4,128.6L83.4,128.6z"/>
		<path fill-rule="evenodd" clip-rule="evenodd" fill="#A88C60" d="M81.4,129.5c0.4,0.3,0.5,0.3,0.7,0.5c0.6,0.2,1.2-0.4,1.2-0.6    c-0.2-0.1-1,0-1.2-0.4c-0.1-0.2-0.7-0.2-1.1-0.2C80.4,129.2,81.1,129.5,81.4,129.5L81.4,129.5z"/>
		<path fill-rule="evenodd" clip-rule="evenodd" fill="#A88C60" d="M82.9,125.2c-1.3-2,0.7-2.7-1.6-5.7c0-1.2,0.2-1,0.6-1.4    c0.5-0.4,2.2-0.5,2.7-1.1c-0.4,0.8-2.2,3.3,0.5,6.1c0.1,0.1-0.1,1.1,0.2,3.1c-0.5-0.2-0.7,0.1-1.1-0.1    C83.7,125.9,83.1,125.4,82.9,125.2L82.9,125.2z"/>
		<path fill-rule="evenodd" clip-rule="evenodd" fill="#A88C60" d="M83.2,127.5c-0.1-0.2,0-0.7-0.1-0.7c-1.1-0.8-2.3-2-1.7-5.2    c-0.7-1-0.6-1.6-0.9-1.7c-0.6-0.3-1.3,1.3-1.3,1.8c0.7,0.6,1,1.5,1.2,4c0,0,0.2,0.6,1.2,1.9C82.2,127.7,82.7,127.4,83.2,127.5    L83.2,127.5z"/>
		<path fill-rule="evenodd" clip-rule="evenodd" fill="#A88C60" d="M80.8,128.5c-0.1-0.2,0.2-0.5-0.2-1.1c-0.5-0.8-1.1-1.3-1.2-3.7    c-0.5-0.8-0.7-1.2-0.9-1.3c-0.5-0.2-0.8,1.1-0.8,1.5c0.6,0.5,3,3.4,1,3.1c-0.6-0.1,0.7,0.8,1.2,1.2    C80.4,128.5,80.4,128.5,80.8,128.5L80.8,128.5z"/>
		<path fill-rule="evenodd" clip-rule="evenodd" fill="#A88C60" d="M106.1,120.6c-0.2-0.5-0.3-1.1-0.3-1.7c-0.2-0.2-0.6-0.5-0.9-0.6    v0.8c0,0,0.2,0.6,0.3,0.6C105.3,120.1,105.9,120.7,106.1,120.6L106.1,120.6z"/>
		<path fill-rule="evenodd" clip-rule="evenodd" fill="#A88C60" d="M95.6,118.9c0.7,0.4,1.1,0.5,1.1,1.7c-0.5,1.6-2.6,2.5-5,5.1    c-0.3,0.4-1.1,0.1-1.3,0.1c-0.9-0.6-2-0.7-2.2-1.7c0-0.1,0.2-0.3,0.2-0.4c0.9-0.7,1.9,0.3,2.8,0.3l-0.2-1.4    c-0.2-0.5-1.2-0.7-2.2-0.8c-0.7,0.2-1.8,0.9-2.3,1.7c-0.4,0.6,0,2,0.3,2c0.5,0.7,2.6,2.1,3.7,2.3c0.4,0,1.3,0.5,2.6-0.7    c0.6-1.7,4.3-2.7,5-6.1c0.2-0.7,0-1-0.1-1.8c-0.2-0.5-1.3-1.4-1.8-1.5L95.6,118.9L95.6,118.9z"/>
		<path fill-rule="evenodd" clip-rule="evenodd" fill="#A88C60" d="M60.4,96.7c2.7,0.9,4.9,3.7,5.1,4.6c0.8,3.7-2.2,7.4-1,10.2    c1.2,3.1,4.5,2.1,7.3,5.9c2.7,3.4-0.2,4.7,4.8,7.1c0.2,0.3,0.6,0.8,0.8,1.3c-4.6,0-5.4-3-6.5-7.2c-1.2-3.5-5.7-2.4-7.9-6.6    c-0.4-4.1,1.7-6.3,1.4-9.6c0.2-2.3-4.1-4.7-4.8-4.8C59.2,97.6,60.3,97,60.4,96.7L60.4,96.7z"/>
		<path fill-rule="evenodd" clip-rule="evenodd" fill="#A88C60" d="M58.4,98.9c2.7,0.9,3.3,2.7,3.6,3.6c1,3.6-2.7,7.1-1.7,9.8    c1.2,3,3.9,3.6,8.1,7c3.2,2.7-0.6,11.5,10.4,9.5c0.3,0.4,1.2,1.1,1.4,1.6c-10.5,3.5-11.5-5.7-12.6-10c-3-2.7-6.3-2.8-8.5-7    c-1.1-5.8,2.2-6.5,1.9-9.8c0.2-2.2-1.7-3.7-2.4-3.7C58,100,58.3,99.2,58.4,98.9L58.4,98.9z"/>
		<path fill-rule="evenodd" clip-rule="evenodd" fill="#A88C60" d="M59.1,96c-0.9,1.1-2.2,1.9-1.7,4.2c0.1,0.1,0.4,1.1,0.4,1.2    c-0.4,0-1.4-0.2-1.9-0.4c-0.1-2.4-1.1-3.2,1.4-5.5C58.3,95.3,58.6,95.7,59.1,96L59.1,96z"/>
		<path fill-rule="evenodd" clip-rule="evenodd" fill="#A88C60" d="M56.3,95.1c-0.8,1.1-2.2,1.9-1.7,4.2c0,0.1,0.4,1.1,0.4,1.3    c-0.5,0-1.4-0.3-1.9-0.5c-0.1-2.4-1.2-3.2,1.3-5.5C55.5,94.3,55.8,94.8,56.3,95.1L56.3,95.1z"/>
		<path fill-rule="evenodd" clip-rule="evenodd" fill="#A88C60" d="M53.5,94.5c-0.9,1.1-2.3,1.9-1.7,4.2c0,0.1,0.4,1.1,0.4,1.3    c-0.6,0.5-1.4-0.2-1.9-0.5c-0.6-1.6-1.4-2.2-1.2-3.2c0.1-0.6,1.7-1.4,2.7-2.3C52.6,93.8,53,94.2,53.5,94.5L53.5,94.5z"/>
		<path fill-rule="evenodd" clip-rule="evenodd" fill="#A88C60" d="M123.1,139.3c-0.7,0.1-1.7,0.1-2.4,0.6c0-0.1-0.6,4.6,0.6,4.1    c0.5-0.2,1,0.1,1.3-0.5c0.4,0,0.4-2.7,0.9-2.7c0-0.2,1.7-0.3,2.2-0.3c1,0,2.1-0.9,2.1-0.7c0.2,0,0.9,0,1.3,0.2    c-1.2,0.8-3,3.4-4.2,3.4c-0.3,0-1.5,0.8-1.5,1.2c0,1,0.9,2.3,1.7,3.2c0.6,0.3,2.2,0.3,3.2-1.7c0.8-0.3,3.6-4.1,4.3-4.1    c0.2-0.4,1.3-0.5,2.2-0.2c1.7,0.2,1.6,1.5,2.1,1.6c0,0.7,0.5,1.6,2.8,1.8c3.9-0.5,3.9,0.4,5.1-2.2c1.6-1.8,0.8-1.7,0.5-2.7    c-0.6-0.7-1.3-1.2-2.2-1.5c-3.2,0.2-4.4-0.5-5.1-2.2c0,0-0.9-0.1-1.6-0.1c0.9,1.5,1.4,2.3,3,2.8c0.4,0.4,2.4,0.2,2.7,1.2    c-0.5,1.8-1.3,2.1-1.5,2.1c-1.6,0.1-1.7-1.2-2.2-1.7c-0.4-0.4-3.3-2.4-3.4-2.8c0,0-0.8,1.7-2.3,1.5c-0.7,0-4.6,4.6-5.6,5.4    c-1-0.1-1.5-0.4-0.9-0.7c0.7-0.7,3.7-3.7,4.2-4.1c0.2-0.6,0.1-0.8-0.1-1.2c-0.2-0.3-0.5-0.5-1-0.5    C127.2,138.6,123.8,140,123.1,139.3L123.1,139.3z"/>
		<path fill-rule="evenodd" clip-rule="evenodd" fill="#A88C60" d="M119.4,140.2c-0.2,1.2,0,2.7,0.3,4.1c-0.6,0-1.2-0.1-1.9,0.1    c-0.7,0.2-1.6,1.3-0.7,2.3l-0.3-0.3c-1.5-0.4-2.5-2.4-0.9-4.6C116.4,141.2,118.9,140.1,119.4,140.2L119.4,140.2z"/>
		<path fill-rule="evenodd" clip-rule="evenodd" fill="#A88C60" d="M122.6,145.5c0.4,1.2,1,2.1,1.9,3.1c-1,0.7-2.3,3.1-0.2,3.6    c-0.1,0-1.2,0.2-1.2,0.2c-1.5,0.3-3.3-1.1-3-3.6C120.3,148,122,145.6,122.6,145.5L122.6,145.5z"/>
		<path fill-rule="evenodd" clip-rule="evenodd" fill="#A88C60" d="M146.7,142.1c-1,0.9-1.4,1.5-1.7,2.8c1,0.6,2.3,3.2,0.2,3.7    c0.1,0,1.2,0.2,1.2,0.2c1.5,0.3,3.2-1.2,3-3.6C149.3,144.5,147.3,142.3,146.7,142.1L146.7,142.1z"/>
		<path fill-rule="evenodd" clip-rule="evenodd" fill="#A88C60" d="M157.6,141.8v-2.3l-1.8,1.7l-0.6,1.1l-2.3,1.6l-0.9-2.1l-0.3,2.7    c0,1.2-1.1,3.4-1.3,4.1c-1.1,2.5-3.5,2.4-5.1,1.8l-0.1,1.1c7.6,1.7,5.1-4.2,8.5-6.4c0,0,0.3-0.5,0.5-0.7c1.7-1.2,4.9-1.6,6.1-1    c0.3,0.2,0.6-1,0.8-1C161.1,142,158.2,141.6,157.6,141.8L157.6,141.8z"/>
		<path fill-rule="evenodd" clip-rule="evenodd" fill="#A88C60" d="M165.3,150.3l2.6,0.2c-1.2,0.5-2.2,0.6-3.4,1.1    c-1.3,0.8-1.3,1.5-4.2,2.7l2,1.7c-1.2-0.3-3.1-0.6-3.8-0.7c-1.7,1.9-9.5,0.5-9.5,0.7v2.4c0,0.4-1.2-2.4-2.8-2.9    c-1.5-0.6-3.8-0.7-4-0.2l1.2-1.7c6.1,0.4,8.9,2.2,15.3-0.2c2.8-1.1,5.3-3.7,5.3-4.9c0.1-0.2,1-0.2,1.4-0.5    C165.8,148.3,165.8,149.8,165.3,150.3L165.3,150.3z"/>
		<path fill-rule="evenodd" clip-rule="evenodd" fill="#A88C60" d="M154.9,151.4c-1.2,0-2.4-0.4-3.2-0.2c-1.3,1.4,0.6,1.9,1.2,1.5    L154.9,151.4L154.9,151.4z"/>
		<path fill-rule="evenodd" clip-rule="evenodd" fill="#A88C60" d="M155.5,146.1c-0.7,0.9-1.9,1.5-2.2,2.2c0.2,2,1.8,0.9,1.9,0.2    L155.5,146.1L155.5,146.1z"/>
		<path fill-rule="evenodd" clip-rule="evenodd" fill="#A88C60" d="M159.4,146.8c-0.9,0.8-2.1,1.3-2.4,1.9c-0.1,1.9,1.7,1,1.8,0.4    L159.4,146.8L159.4,146.8z"/>
		<path fill-rule="evenodd" clip-rule="evenodd" fill="#A88C60" d="M159.4,151.1c-1,0-2-0.3-2.6-0.2c-1.2,1.2,0.4,1.6,0.9,1.2    L159.4,151.1L159.4,151.1z"/>
		<path fill-rule="evenodd" clip-rule="evenodd" fill="#A88C60" d="M57.5,137.2c-1,0.2-1.3-0.4-2.2-0.4c0.5,1.9,1.2,2.4,2.6,2    c1.1,1.2,1,1.8,3.6,3.6c-0.7,0.4-1.6,0.8-2.3,1.2c1.1,0.7,3,0.8,3.8,0.2c0.4,0.7,1.7,1.4,3.1,1.7c0.7,0.2-1.8,2-1.5,2.1    c1.6,0.2,2.6-0.2,3.2-1.6c0.2,0,5.1,0.7,5.1,0.7c0.3-0.5,0-0.7,0.3-1.7c-6.1-1-4.5,0.6-9.9-3.1c-2.3-1.5-3.8-4.6-3.8-5.6    c0-1.2,3.7-4.7,4.6-4.9c1.5-0.4,2.7,0.7,4.9,2.1c1.9,1.2,4.1,5.7,4.6,8l1.3-1c-0.5-1.8-0.6-2.6-0.8-3.2c-0.3-0.6,1.4-1.7,0.5-4.3    c-0.6,0.7-1.1,1.4-1.7,2.2c-1.2-1.7-3.2-3.5-6.1-5.1c0.2-1.3-0.7-2.4-2.6-3.5l0.3,3.2C61.4,129.5,56.5,136.6,57.5,137.2    L57.5,137.2z"/>
		<path fill-rule="evenodd" clip-rule="evenodd" fill="#A88C60" d="M68.7,141.2c1.2,0.3,2.4,0.2,3.1,0.6c1,1.7-1,1.7-1.5,1.2    L68.7,141.2L68.7,141.2z"/>
		<path fill-rule="evenodd" clip-rule="evenodd" fill="#A88C60" d="M68.9,135.3c0.6,1.1,1.6,1.9,1.7,2.7c-0.6,1.9-1.9,0.4-1.9-0.2    L68.9,135.3L68.9,135.3z"/>
		<path fill-rule="evenodd" clip-rule="evenodd" fill="#A88C60" d="M64.8,133.9c0.6,0.9,1.7,1.7,1.8,2.4c-0.3,1.8-1.8,0.6-1.8-0.1    V133.9L64.8,133.9z"/>
		<path fill-rule="evenodd" clip-rule="evenodd" fill="#A88C60" d="M63.7,138.6c0.9,0.4,2,0.6,2.4,1c0.5,1.5-1.1,1.2-1.3,0.7    L63.7,138.6L63.7,138.6z"/>
		<path fill-rule="evenodd" clip-rule="evenodd" fill="#A88C60" d="M99.4,155.3c-0.7,0.9-0.4,0.7-1.4,1.2c1.2,0.2,2.3,0,3.6-1    c1.7,0.2,4.1,0.2,5.3,0.4c0.2,0.9-0.2,1-0.6,1.9c1.5-0.2,2.7-0.7,3-1.7c0.9,0.4,3.1,0.2,4.5-0.5c0.7-0.3,0.1,2.2,0.2,2    c1.4-1,2.2-1.2,1.9-2.9c0.2-0.1,2.5-0.6,2.5-0.6c-0.1-0.6,0.3-1.2-0.1-2.2c-6.3,3-8.8,2.5-14.1,2c-1.2-0.1-4.9-0.8-6.1-1.5    c-2.3-1.4-0.7-7.1,0-8c1.1-1.4,1.8-2.5,5.9-2.3c2.6,0.1,7.5,2.9,9.6,4.5l0.4-1.8c-1.7-1.2-2.3-1.9-2.9-2.2c-0.7-0.2,0-2.6-2.7-4.1    c0,1,0.1,2,0.1,3c-1.2-0.3-3.3-1.1-4.4-1c-0.2-1.3-2.6-2.2-3.8-2.4c0,0,1,2.2,0.5,2.3c-0.6,0.1-1.5,0.7-2,0.8    c-1.4-0.5-1.3-1-3.7-0.6l1.8,2.4C94.5,145.3,93.4,154.5,99.4,155.3L99.4,155.3z"/>
		<path fill-rule="evenodd" clip-rule="evenodd" fill="#A88C60" d="M108.1,147.9c1.2,0.1,2.6-0.2,3.3,0c1.2,1.5-0.7,1.9-1.3,1.5    L108.1,147.9L108.1,147.9z"/>
		<path fill-rule="evenodd" clip-rule="evenodd" fill="#A88C60" d="M113.6,149c1.2-0.2,2.5-0.9,3.2-0.9c1.7,1.2-0.2,2.2-0.8,1.9    L113.6,149L113.6,149z"/>
		<path fill-rule="evenodd" clip-rule="evenodd" fill="#A88C60" d="M105.9,143.8c1.2,0.5,2.6,0.6,3.2,1.1c0.7,2-1.3,1.7-1.7,1.1    L105.9,143.8L105.9,143.8z"/>
		<path fill-rule="evenodd" clip-rule="evenodd" fill="#A88C60" d="M101.1,146.5c1.2-0.2,2.6-0.9,3.3-0.8c1.7,1.2-0.2,2.2-0.9,1.8    L101.1,146.5L101.1,146.5z"/>
		<path fill-rule="evenodd" clip-rule="evenodd" fill="#A88C60" d="M103.9,151.2c1.2-0.2,2.3-1,3-0.9c1.7,1-0.1,1.9-0.7,1.7    L103.9,151.2L103.9,151.2z"/>
		<path fill-rule="evenodd" clip-rule="evenodd" fill="#A88C60" d="M75.4,148.8c-0.2,1.2-0.8,2.3-2.2,2.1c1.4,1.5,2.5,0.2,3.7-0.7    c1.4,0.5,2.9,1.3,6,1.7c-0.4,0.7-0.7,1.4-1.2,2.2c1.7-0.1,3.2-1,3.2-1.7c1,0.7,9.1-1,8.8-1.6c-0.2-0.3,0.1-0.7-0.2-1.7    c-5.9,1.7-4.4,1.7-10.8,1.3c-2.6-0.2-5.5-2.2-6-3.2c-0.6-1,1-6,1.7-6.5c1.1-1,4-0.4,3.8-0.8c0,0,0.4-1.7,0.2-1.7    c-0.7,0.2-1.6,0.2-2.8,0.2c-0.5-1.2-0.6-1.4-2.7-1.4c0.7,0.7,0.8,1.4,1.2,2.1C75,140.2,74.2,148.7,75.4,148.8L75.4,148.8z"/>
		<path fill-rule="evenodd" clip-rule="evenodd" fill="#A88C60" d="M89.9,146.6c1.2-0.1,2.4-0.7,3.2-0.6c1.5,1.2-0.4,2-1,1.7    L89.9,146.6L89.9,146.6z"/>
		<path fill-rule="evenodd" clip-rule="evenodd" fill="#A88C60" d="M90.7,141.1c1.2,0.4,4.3,2.4,4.3,3.3c-0.2,0.2-0.5,0.8-0.9,0.8    c-0.9-1.1-2.2-2.2-3.7-2.6L90.7,141.1L90.7,141.1z"/>
		<path fill-rule="evenodd" clip-rule="evenodd" fill="#A88C60" d="M79.4,144.2c1.2-0.2,2.3-0.7,3-0.6c1.5,1.2-0.3,1.9-0.9,1.7    L79.4,144.2L79.4,144.2z"/>
		<path fill-rule="evenodd" clip-rule="evenodd" fill="#A88C60" d="M83,148c1,0.1,2.1-0.2,2.6,0.1c1.1,1.2-0.6,1.5-1,1.2L83,148    L83,148z"/>
		<path fill-rule="evenodd" clip-rule="evenodd" fill="#A88C60" d="M86.3,138l0.2-1.1c-1.8-0.3-3,0.7-2.9,3.2    c0.1,2.4,0.4,3.6,1.8,4.3c1.5,0.7,3.3,0.2,4.2-3.2c0.8-3.2-0.7-4.1-3-4.3L86.3,138c0.7,0.2,1.4,1.4,1.2,2.7    c-0.2,1.2-1.2,2.4-1.9,2.2c-0.7-0.2-1.1-1.5-0.8-2.7C84.8,139,85.6,138.1,86.3,138L86.3,138z"/>
		<path fill-rule="evenodd" clip-rule="evenodd" fill="#A88C60" d="M83.3,134.3c0.5-0.7,1.2-0.9,2.1-0.7c0.4,0.9,0.5,1.7,0.2,2.6    c-0.2,0-0.5,0.1-0.7,0.2C84.1,135.8,83.6,135.1,83.3,134.3L83.3,134.3z"/>
		<path fill-rule="evenodd" clip-rule="evenodd" fill="#A88C60" d="M86.7,133.3c0.7-0.4,1.5-0.3,2.3,0.2c0,1-0.2,1.7-0.8,2.4    c-0.3-0.1-0.5-0.1-0.8-0.1C86.9,135,86.7,134.2,86.7,133.3L86.7,133.3z"/>
		<path fill-rule="evenodd" clip-rule="evenodd" fill="#A88C60" d="M89.9,134.2c0.8-0.1,1.5,0.3,2,1.2c-0.5,0.8-1.1,1.4-1.9,1.7    c-0.2-0.2-0.4-0.3-0.7-0.5C89.2,135.8,89.5,134.9,89.9,134.2L89.9,134.2z"/>
		<path fill-rule="evenodd" clip-rule="evenodd" fill="#A88C60" d="M166.7,142.3l1.3-1c-0.9-0.9-3-0.7-4.6,0.3    c-1.8,1.2-2.7,3.2-1.9,4.4c0.7,1.1,3,1.2,4.8,0c1.9-1.2,2.5-3.6,1.7-4.7L166.7,142.3c0.5,0.7,0.1,2.1-1,2.7    c-1.1,0.7-2.6,0.7-3.1,0.1c-0.4-0.7,0.2-1.9,1.3-2.6C164.9,141.9,166.2,141.8,166.7,142.3L166.7,142.3z"/>
		<path fill-rule="evenodd" clip-rule="evenodd" fill="#A88C60" d="M167.5,136.7c0.7,0,1.3,0.4,1.7,1.1c-0.5,0.8-1,1.3-1.7,1.6    c-0.2-0.2-0.4-0.2-0.6-0.4C166.8,138.2,167,137.3,167.5,136.7L167.5,136.7z"/>
		<path fill-rule="evenodd" clip-rule="evenodd" fill="#A88C60" d="M169.9,138.5c0.7,0.1,1.2,0.6,1.6,1.4c-0.6,0.7-1.2,1.1-2.1,1.2    c-0.1-0.2-0.2-0.3-0.5-0.5C169.1,139.7,169.3,139,169.9,138.5L169.9,138.5z"/>
		<path fill-rule="evenodd" clip-rule="evenodd" fill="#A88C60" d="M172.4,141.3c0.5,0.6,0.6,1.2,0.2,2.1c-0.8,0.1-1.6,0-2.2-0.5    c0-0.2,0-0.5,0-0.7C170.9,141.6,171.6,141.3,172.4,141.3L172.4,141.3z"/>
		<path fill-rule="evenodd" clip-rule="evenodd" fill="#A88C60" d="M173.1,136.2c-0.7,0.3-1.2,0.7-1.7,1.3c0.2,0.5,0.6,0.9,1.2,1.2    c0.7-0.3,1.1-0.7,1.5-1.3c0.7,0.5,1.7-0.2,2-0.9c0.4-0.7,0.2-1.7-0.6-2.2c-0.7-0.4-1.7-0.2-2.1,0.6    C173.1,135.3,173,135.8,173.1,136.2L173.1,136.2z"/>
		<path fill-rule="evenodd" clip-rule="evenodd" fill="#A88C60" d="M56.5,125.1l-0.7-0.8c1.5-1.3,3.2-1.2,4.4,0.9    c1.2,2.1,1.5,3.2,0.6,4.7c-1,1.5-3,2.1-5.5-0.2c-2.5-2.3-1.5-4,0.4-5.6L56.5,125.1c-0.7,0.5-0.5,2,0.3,2.9c0.9,0.9,2.4,1.3,3,0.7    c0.6-0.6,0.2-1.9-0.7-2.8C58.4,125.1,57.2,124.7,56.5,125.1L56.5,125.1z"/>
		<path fill-rule="evenodd" clip-rule="evenodd" fill="#A88C60" d="M58.4,119.7c-0.7-0.4-1.4-0.3-2.2,0.2c0,1,0.2,1.7,0.9,2.4    c0.2-0.1,0.5-0.1,0.7-0.1C58.4,121.5,58.6,120.7,58.4,119.7L58.4,119.7z"/>
		<path fill-rule="evenodd" clip-rule="evenodd" fill="#A88C60" d="M54.7,120.6c-0.8-0.1-1.5,0.3-2,1.1c0.4,0.9,1,1.5,1.8,1.8    c0.3-0.2,0.4-0.3,0.7-0.4C55.3,122.1,55.1,121.3,54.7,120.6L54.7,120.6z"/>
		<path fill-rule="evenodd" clip-rule="evenodd" fill="#A88C60" d="M51.1,122.6c-0.7,0.5-1,1.2-0.9,2.1c0.9,0.5,1.7,0.6,2.6,0.4    c0.1-0.2,0.2-0.5,0.2-0.7C52.6,123.6,52,123,51.1,122.6L51.1,122.6z"/>
		<path fill-rule="evenodd" clip-rule="evenodd" fill="#A88C60" d="M52.2,117.5c0.7,0.4,1,1,1.3,1.7c-0.3,0.4-0.7,0.7-1.3,0.9    c-0.6-0.4-0.9-1-1.2-1.6c-0.8,0.2-1.6-0.7-1.7-1.4c-0.2-0.8,0.2-1.7,1.1-2c0.7-0.2,1.7,0.3,1.9,1.1    C52.4,116.7,52.5,117.2,52.2,117.5L52.2,117.5z"/>
		<path fill-rule="evenodd" clip-rule="evenodd" fill="#A88C60" d="M124.9,155.8c-0.7,1.2-1.7,2.1-1.9,2.9c0.5,2.1,2.1,0.5,2.1-0.3    L124.9,155.8L124.9,155.8z"/>
		<path fill-rule="evenodd" clip-rule="evenodd" fill="#A88C60" d="M131.1,150.3c-1.2,0.7-2.7,0.9-3.2,1.4c-0.7,2.2,1.5,1.7,1.9,1    L131.1,150.3L131.1,150.3z"/>
		<path fill-rule="evenodd" clip-rule="evenodd" fill="#A88C60" d="M138.2,145.6c-1.4,0.2-3,0-3.8,0.3c-1.4,2,1.1,2.2,1.7,1.7    L138.2,145.6L138.2,145.6z"/>
		<path fill-rule="evenodd" clip-rule="evenodd" fill="#A88C60" d="M137.4,150.8c-1.4,0-2.9-0.6-3.7-0.3c-1.7,1.6,0.6,2.3,1.3,1.9    L137.4,150.8L137.4,150.8z"/>
		<path fill-rule="evenodd" clip-rule="evenodd" fill="#A88C60" d="M132.6,144.9c-1,0.7-2.2,1-2.7,1.6c-0.4,2.1,1.4,1.4,1.7,0.7    L132.6,144.9L132.6,144.9z"/>
		<path fill-rule="evenodd" clip-rule="evenodd" fill="#A88C60" d="M135.5,142.6c-0.7,0.1-1.6-0.2-2,0c-0.9,1,0.3,1.2,0.7,1    L135.5,142.6L135.5,142.6z"/>
		<path fill-rule="evenodd" clip-rule="evenodd" fill="#A88C60" d="M121.3,153.4l-1.7-1.7c-1.5,3.8-0.8,8.7,0.1,13.4    c2,0.1,5.6-0.1,8.4-0.3c-0.2-7.1,2.7-7.1,7.6-8.5c1,0.2,5.6,0.3,5.5,0.3c-0.2-0.3-1.2-0.9-1.5-1.7c-0.2-1,1.9-2,2.3-2.3    c2.6-1.7,3.1-4.7,2.6-6.7c-0.1-0.1-0.2-0.2-0.2-0.3c-0.6,0.3-1.5,0.4-2.2,0.8c0.7,2.8,0.3,3.7-4.9,7.1c-1.7,1.1-6.8,2.7-8,3.3    c-2.7,1.5-2.7,3.5-2.9,6.5c0,0.2-5.6,0-5.6-0.2C120.8,159.3,119.2,156.8,121.3,153.4L121.3,153.4z"/>
		<path fill-rule="evenodd" clip-rule="evenodd" fill="#A88C60" d="M105,164.7c-0.7-0.2-1.6-1.2-1.5-2.2c0.1-1.1,1.1-1.4,1.7-1.2    c0.6,0.2,1.2,0.2,1.1,1.2c0,0.4,1.2,0.3,1.2-0.1c0.2-1.5-0.8-2.5-2.1-2.6c-1.3-0.1-3,0.2-3.3,2.1c-0.2,0.8,0.3,2.3,0.7,2.8    c-0.7,3.9-0.6,5.3,1,8.5c-0.4,0.5,0-0.1-0.2,0.6c-0.2,0.7-0.5,1.9-0.1,2.8c0.9,1.8,2.5,1.8,3.7,1.4c1.3-0.4,1.9-2.1,1.5-3.5    c-0.2-0.7-1.4-0.4-1.2,0.3c0.3,0.8-0.2,1.3-0.7,1.7c-0.7,0.4-1.7,0.3-2-0.7c-0.2-1.1,0.5-2,1.1-2.4    C104.8,171.9,103.4,167.2,105,164.7L105,164.7z"/>
		<path fill-rule="evenodd" clip-rule="evenodd" fill="#A88C60" d="M133.6,163.8c0.7-0.3,1.2-1.7,1-2.7c-0.2-1-1.3-1.1-1.9-0.8    c-0.6,0.3-1.1,0.8-0.8,1.6c0.2,0.7-1.4,1-1.7,0.2c-0.4-1.3,0.8-2.9,2.1-3.2c1.2-0.3,3.3,0,3.9,1.6c0.2,0.8,0,2.7-0.7,2.9    c1.3,3.6,1.4,4.6,0.3,7.7c0.6,0.4,0.3,0,0.7,0.5c0.3,0.6,0.8,1.7,0.5,2.7c-0.5,1.8-2.1,2.1-3.4,1.9c-1.3-0.2-2.2-1.6-2.1-3    c0.2-0.7,1.3-0.7,1.2,0.1c-0.2,0.8,0.4,1,1.1,1.2c0.7,0.2,1.3-0.1,1.4-1.2c0.1-1.1-0.6-1.9-1.2-2.2    C134.9,169.7,135.5,165.9,133.6,163.8L133.6,163.8z"/>
		<path fill-rule="evenodd" clip-rule="evenodd" fill="#A88C60" d="M117.4,161.8c-2.8-0.3-6,0-8.7,0.5c0.1-0.3-0.3-0.9-0.1-1.7    c2.7-0.6,5.9-0.7,8.7-0.5C117.3,160.4,117.4,161.5,117.4,161.8L117.4,161.8z"/>
		<path fill-rule="evenodd" clip-rule="evenodd" fill="#A88C60" d="M109.6,176.4c5.5,3.2,19.3,1.1,21.8-0.3    c-0.1,0.3,1.6,0.3,1.2,1.2c-3.2,2.9-22.4,3-23.7,1.2C109,178.2,109.5,176.8,109.6,176.4L109.6,176.4z"/>
		<path fill-rule="evenodd" clip-rule="evenodd" fill="#A88C60" d="M112.4,163.8c5.2,5.5,3.1,8.6,8.1,13.1c-0.4,0-1-0.1-1.3,0.1    c-5.5-5.2-4.1-9.1-9-13.6C110.6,163.2,112.1,163,112.4,163.8L112.4,163.8z"/>
		<path fill-rule="evenodd" clip-rule="evenodd" fill="#A88C60" d="M116.8,163.2c4.6,5.1,3,8.9,8,13.5c-0.4,0-1.1,0.4-1.7-0.5    c-5.1-5.4-3.6-8.7-8.5-13.2C115,162.9,115.8,162.9,116.8,163.2L116.8,163.2z"/>
		<path fill-rule="evenodd" clip-rule="evenodd" fill="#A88C60" d="M122.9,166.8c1.9,1.2,1.1,5.6,5.7,9.5c-0.3,0-0.7,0.2-1.2-0.3    c-4.2-3.5-3-5.1-6.1-9.3C121.7,166.6,122.3,166.5,122.9,166.8L122.9,166.8z"/>
		<path fill-rule="evenodd" clip-rule="evenodd" fill="#A88C60" d="M148.7,171.2l-0.2,1.5c1.8,0,2.7-0.6,3-2.8    c0.2-1.8-0.7-3.1-2.2-3.2c-1.4-0.2-2.8,0.1-3.2,2.1c-0.5,1.9,0.8,3.7,2.4,4L148.7,171.2c-0.7-0.2-1.2-0.8-1.2-2    c0-1.1,1-1.4,1.7-1.1c0.7,0.2,1.2,0.7,1,1.7C149.9,170.8,149.5,171.2,148.7,171.2L148.7,171.2z"/>
		<path fill-rule="evenodd" clip-rule="evenodd" fill="#A88C60" d="M158,159.1c-2.4-0.6-4.1-0.7-6.6,0.2c-1.8,1.3-1.1,3.3,0.5,3.8    c2.7,0.7,4.1,0.6,6.8-1.7c-1.6-0.2-4-0.2-5.5-0.5c0.1,0.1-0.5,0.9,0.1,1.5c-0.4-0.1-0.8,0.2-1.1-0.4c-1.3-3.2,3.7-2.1,6.1-1.8    C158.3,160.1,158,159.2,158,159.1L158,159.1z"/>
		<path fill-rule="evenodd" clip-rule="evenodd" fill="#A88C60" d="M138,162.9c3.6-0.2,7.5-1,10.8-2c0,0.3,0,0.6,0.1,0.8    c-3.3,1.2-7.4,2-11,2.4C138,163.8,138,163.2,138,162.9L138,162.9z"/>
		<path fill-rule="evenodd" clip-rule="evenodd" fill="#A88C60" d="M139.1,173.5c2-1.1,4.1-1.9,6.1-2.3c0-0.3,0-0.7,0-1    c-1.7-0.1-4.3,0.5-6.5,1.6C138.8,172,139,173.3,139.1,173.5L139.1,173.5z"/>
		<path fill-rule="evenodd" clip-rule="evenodd" fill="#A88C60" d="M145.2,167.6c-3.7-0.4,1.6-2.9,4.8-4c-0.2-0.2-0.3-0.5-0.4-0.7    c-4.5,0.9-12,4.9-4.6,5.9C145.3,169,145,167.4,145.2,167.6L145.2,167.6z"/>
		<path fill-rule="evenodd" clip-rule="evenodd" fill="#A88C60" d="M86.5,175.3c2.1-1.4,3.7-2.2,6.4-2c2.1,0.7,2.1,3,0.7,4    c-2.2,1.7-3.7,2-7,0.6c1.4-0.7,3.7-1.6,5.1-2.4c-0.1,0.2,0.7,0.8,0.4,1.5c0.3-0.1,0.8,0,0.9-0.7c0.2-3.7-4.2-0.7-6.4,0.3    C86.5,176.4,86.5,175.4,86.5,175.3L86.5,175.3z"/>
		<path fill-rule="evenodd" clip-rule="evenodd" fill="#A88C60" d="M91.6,157.9l-0.2,1.5c1.8,0,2.8-0.6,3-2.8    c0.2-1.8-0.7-3.1-2.1-3.3c-1.5-0.2-2.8,0.2-3.3,2.1c-0.4,2,0.9,3.8,2.4,4.1L91.6,157.9c-0.7-0.2-1.2-0.9-1.2-2    c0.1-1.1,1.1-1.4,1.7-1.2c0.7,0.3,1.2,0.8,1,1.8C92.8,157.5,92.4,157.9,91.6,157.9L91.6,157.9z"/>
		<path fill-rule="evenodd" clip-rule="evenodd" fill="#A88C60" d="M79.2,169.4l-0.2,1.5c1.8,0,2.7-0.6,3-2.8    c0.2-1.8-0.7-3.1-2.2-3.3c-1.4-0.2-2.8,0.2-3.3,2.1c-0.4,2,0.9,3.8,2.5,4.1L79.2,169.4c-0.7-0.2-1.2-0.8-1.2-2    c0-1.1,1-1.4,1.7-1.1c0.7,0.2,1.2,0.7,1,1.7C80.4,169,80,169.4,79.2,169.4L79.2,169.4z"/>
		<path fill-rule="evenodd" clip-rule="evenodd" fill="#A88C60" d="M68.5,154.6c2.5-0.1,4.2,0.2,6.4,1.7c1.5,1.7,0.3,3.5-1.3,3.6    c-2.9,0.2-4.1-0.4-6.2-3.2c1.5,0.2,3.9,0.7,5.5,0.7c-0.2,0.1,0.2,1-0.4,1.4c0.3,0.1,0.7,0.4,1.1-0.1c2.1-2.9-3.2-2.9-5.6-3.2    C67.9,155.4,68.4,154.7,68.5,154.6L68.5,154.6z"/>
		<path fill-rule="evenodd" clip-rule="evenodd" fill="#A88C60" d="M91.5,160.6c0.4,2.5-12-3.7-14.4-3.2c-0.2,0.3,0,0.7,0,1    c4.6,0.3,15.5,7.2,15.7,2.6C92.7,160.6,91.5,160.9,91.5,160.6L91.5,160.6z"/>
		<path fill-rule="evenodd" clip-rule="evenodd" fill="#A88C60" d="M100.5,163.6c-2.1-0.9-4.6-3.1-6.2-4.2c-0.2,0.2-0.2,0.5-0.5,0.7    c0.4,2,4.1,4.5,6.8,4.7C100.9,164.6,100.4,163.7,100.5,163.6L100.5,163.6z"/>
		<path fill-rule="evenodd" clip-rule="evenodd" fill="#A88C60" d="M101.4,176.7c-2-1.2-3.5-1.5-5.7-0.9c-0.1-0.2-0.2-0.9-0.2-1.2    c1.7-1.1,4.1-1.1,6.1,0.6C101.6,175.5,101.4,176.4,101.4,176.7L101.4,176.7z"/>
		<path fill-rule="evenodd" clip-rule="evenodd" fill="#A88C60" d="M82.4,164.6c0.8-1.5-2.4-3.1-6.2-4.2c0.2-0.2,0.4-0.6,0.6-0.8    c4.5,0.9,10.6,4.4,6.3,6.1C82.8,166,82.5,164.3,82.4,164.6L82.4,164.6z"/>
		<path fill-rule="evenodd" clip-rule="evenodd" fill="#A88C60" d="M94.4,172.8c4.9-3.4-7.3-4.9-10.7-4.6c0.1-0.3-0.1-0.7-0.1-1    c4.8-0.8,17.8,1.5,11.8,6.5C95.2,173.8,94.5,172.5,94.4,172.8L94.4,172.8z"/>
		<path fill-rule="evenodd" clip-rule="evenodd" fill="#A88C60" d="M116.5,181.9c0.7-0.1,1.3-0.1,2.1-0.1c-0.3,2.3,0.1,4.8,0.7,7.2    c-0.6,0-1.4-0.2-1.9-0.1C116.8,186.7,116.5,184.4,116.5,181.9L116.5,181.9z"/>
		<path fill-rule="evenodd" clip-rule="evenodd" fill="#A88C60" d="M116.5,189.5c0.6,1.1,0.9,1.2,2,1.2c-2.6,1.8-7.6,4.2-8.1,7.9    c-0.6-0.6-0.7-1.6-1.3-2.2C109.7,193.8,113.9,191.8,116.5,189.5L116.5,189.5z"/>
		<path fill-rule="evenodd" clip-rule="evenodd" fill="#A88C60" d="M122,190c0.5,0.4,0.6,0.2,1.8,0.2c-1.7,2.7-6.2,5.6-7.3,8.8    c-0.6-0.6-0.5-1.6-1.1-2.2C116,194.1,119.4,192.3,122,190L122,190z"/>
		<path fill-rule="evenodd" clip-rule="evenodd" fill="#A88C60" d="M134.4,194.2c-0.2,0.7-1.9,0.2-1.5,1.3c-3.1-0.5-5.1-3.3-8.5-3.1    c0.2-0.8,0.5-1.1,0.7-1.8C127.9,190.1,131.2,192.7,134.4,194.2L134.4,194.2z"/>
		<path fill-rule="evenodd" clip-rule="evenodd" fill="#A88C60" d="M132.6,188.6c-0.2,0.7-1.5-0.1-1.1,1.1c-3.2-0.4-2.8-2.1-6.1-1.8    c0.3-0.8,0.7-1.1,0.9-1.9C129,185.6,129.4,187.1,132.6,188.6L132.6,188.6z"/>
		<path fill-rule="evenodd" clip-rule="evenodd" fill="#A88C60" d="M108.9,189.6c0.3,0.7,1.7-0.2,1.3,1c3.1-0.7,2.3-2.5,5.7-2.6    c-0.4-0.7,0.1-1.1-0.2-1.8C113,186,112,187.8,108.9,189.6L108.9,189.6z"/>
		<path fill-rule="evenodd" clip-rule="evenodd" fill="#A88C60" d="M134.6,190c0,0.4-0.3,0.2-0.2,1.2c-1.1-0.4-1.2-0.6-2.3-0.4    c0.1-0.6,0-0.7,0.1-1.3C132.8,189,133.4,189,134.6,190L134.6,190z"/>
		<path fill-rule="evenodd" clip-rule="evenodd" fill="#A88C60" d="M106.7,191.4c0.1,0.6,0.4,0.3,0.3,1.3c1.2-0.5,1.2-0.7,2.6-0.7    c-0.2-0.7,0-0.8-0.2-1.5C108.7,190.1,108,190,106.7,191.4L106.7,191.4z"/>
		<path fill-rule="evenodd" clip-rule="evenodd" fill="#A88C60" d="M128.9,196.9c-0.2,0.7-1.9,0-1.5,1.2c-3.2-0.5-2.8-2.5-6.2-2.2    c0.3-0.8,1.2-0.7,1.4-1.5C125.3,193.9,125.8,195.4,128.9,196.9L128.9,196.9z"/>
		<path fill-rule="evenodd" clip-rule="evenodd" fill="#A88C60" d="M124.3,181.9c-0.7-0.1-1.4-0.1-2.2-0.1c0.3,2.3,0,4.8-0.7,7.2    c0.6,0,1.4-0.2,2-0.1C124.1,186.7,124.3,184.4,124.3,181.9L124.3,181.9z"/>
		<path fill-rule="evenodd" clip-rule="evenodd" fill="#A88C60" d="M115.3,182.2c0.1,0.7,0.2,0.7,0.2,1.4c-2.5-0.1-7.7,2.9-9.1,4.3    c-0.1-0.2-1.7-3-2.3-3.8l-0.7,1.7l-2.8-0.1l-4.2-4l0.9,4.1l-1.8,0.1l-5.6-3.7l1.9,3.5l-2.5,0.2l-5.7-2.3l1.7,2.2l-5,1.5l9.4-0.4    l-2.5,3.9l4.4-3l4.7-0.2l-2.9,4.8l4.8-4.8l3.7-0.2l-1.2,4.1l3.8-4.9l1-0.3l0.8,1.6l-5.8,5.5l-1.7,0.2l1.5-4.4l-2,0.3l-3.9,4.4    l-2.7-0.2l-0.4-1.5l2.8-3.3l-2.5,0.5l-3.9,2.5l-3.1-0.2l2.8-3.6l-4,0.3l-0.4,0.8l-5.4-0.3l0.5-1.8l4.2-2.3l-0.7-1.4l2.4-1l5.7,2.1    l-2.5-3.6l3.5-0.2l4.7,3.5l-1-4.7l2.6-0.1l4.1,4.7l1-2.1l2.1,0.4l2.4,1.7C108.7,183.2,112.8,182.5,115.3,182.2L115.3,182.2z"/>
		<polygon fill-rule="evenodd" clip-rule="evenodd" fill="#A88C60" points="80.8,181.7 75.2,177.6 74.7,172.9 73.1,172.6     72.5,174.6 71.6,173.3 71.1,168.4 67.8,165.8 67.4,170.7 65.8,168.5 65.4,163.3 63,161.7 62.6,165.4 59.7,162.1 58.5,163.3     59.4,165.6 59.9,166.4 56.3,166.8 55.4,168 57.9,168.6 61.2,171.2 55.5,171 57.6,173.4 64.2,174.7 64.9,176 58.9,177.3     62.6,180.1 68.6,179.2 68.7,181.2 76.8,180.5 75,179.2 70.2,179.5 70.2,177.8 63.8,178.6 62.8,177.9 66.7,177.1 67.8,175.8     64.7,173.1 59.8,172.4 63.9,172.4 63.5,169.9 58.9,167.9 61.1,167.5 61,165.5 63.5,168.9 64.3,164.9 64.7,170.2 68.5,174.3     68.9,168.7 70.1,170.5 70.4,175.8 72.5,177.6 73.8,175.2 74.1,178.5 80,182.7 80.8,181.7   "/>
		<path fill-rule="evenodd" clip-rule="evenodd" fill="#A88C60" d="M81.9,181.2c-0.7-1.4-1.4-3-0.2-4.1c0.2-0.3,0.2-0.7-0.2-1.2    c-1.1,0.1-1.9,0-3.5,0.8c-0.6,0.4-0.8,1.2-0.2,1.6C80,178.9,80.4,181.1,81.9,181.2L81.9,181.2z"/>
		<path fill-rule="evenodd" clip-rule="evenodd" fill="#A88C60" d="M79,183.6c-1.5,0.1-3.2,0.2-3.6,1.8c-0.2,0.3-0.5,0.6-1.2,0.5    c-0.5-0.9-1-1.7-1-3.4c0-0.7,0.6-1.4,1.2-1C76.1,183.2,78.1,182.4,79,183.6L79,183.6z"/>
		<path fill-rule="evenodd" clip-rule="evenodd" fill="#A88C60" d="M79,175.7c0.7,0,1.2-0.6,1.2-1.2c0-0.7-0.6-1.3-1.2-1.3    c-0.7,0-1.3,0.6-1.3,1.3C77.7,175.1,78.3,175.7,79,175.7L79,175.7z"/>
		<path fill-rule="evenodd" clip-rule="evenodd" fill="#A88C60" d="M70.6,185.1c-0.4-0.6-0.2-1.4,0.4-1.7c0.7-0.3,1.4-0.2,1.7,0.5    c0.4,0.6,0.2,1.3-0.4,1.7C71.7,186,71,185.7,70.6,185.1L70.6,185.1z"/>
		<path fill-rule="evenodd" clip-rule="evenodd" fill="#A88C60" d="M56.8,163.3c-0.3-1.5-0.4-3.2,1.1-3.8c0.3-0.3,0.4-0.7,0.3-1.3    c-1-0.2-1.8-0.6-3.6-0.2c-0.7,0.2-1.2,0.9-0.7,1.4C55.8,160.6,55.4,162.7,56.8,163.3L56.8,163.3z"/>
		<path fill-rule="evenodd" clip-rule="evenodd" fill="#A88C60" d="M54.6,166.3c-1.5-0.4-3.2-0.7-4,0.7c-0.3,0.2-0.7,0.3-1.2,0.1    c-0.2-1-0.5-1.8,0-3.6c0.3-0.7,1.1-1.1,1.5-0.5C52,165,54.1,164.8,54.6,166.3L54.6,166.3z"/>
		<path fill-rule="evenodd" clip-rule="evenodd" fill="#A88C60" d="M56.6,154.8c-0.7-0.2-1.4,0.2-1.7,0.8c-0.2,0.7,0.2,1.4,0.8,1.6    c0.7,0.2,1.4-0.1,1.6-0.7C57.6,155.8,57.3,155,56.6,154.8L56.6,154.8z"/>
		<path fill-rule="evenodd" clip-rule="evenodd" fill="#A88C60" d="M46.1,165.1c-0.1-0.7,0.3-1.3,1-1.5c0.7-0.2,1.4,0.3,1.6,1    c0.1,0.7-0.3,1.3-1,1.5C46.9,166.3,46.2,165.9,46.1,165.1L46.1,165.1z"/>
		<polygon fill-rule="evenodd" clip-rule="evenodd" fill="#A88C60" points="57.8,165.8 57.5,164.3 56,164.1 52.5,159.8 53.1,152.4     51.8,151.1 49.8,153.8 50.1,145.4 47.6,144.8 45.9,149.5 44.9,149 44.9,143.7 43.4,143.1 42.3,146.5 39.9,143.6 38.7,143.9     39.3,144.8 36.3,145.1 38.4,147.6 34.4,148 36,150.3 41.2,151.4 42.7,152.5 37.3,152.4 37.9,154.8 41.2,155.9 44.7,156.5     46,157.5 42.5,157.6 42.6,158.7 45.8,160.2 52.5,162.8 51,160.6 45.9,158.7 48.6,158.3 46.7,155.7 39.7,153.8 45.4,153.7     42.5,150.4 37.3,149.1 41.2,149.4 38.8,146.1 40.7,147 40.2,145.5 42.4,148.1 43.7,145.9 43.8,150 46.8,152.4 48.7,146.6     48.4,153.8 49,156.3 51.6,153.9 50.9,160.3 52.6,163 55.1,165.4 57.8,165.8   "/>
		<path fill-rule="evenodd" clip-rule="evenodd" fill="#A88C60" d="M41.5,141.5c0.3-1.5,0.8-3.2,2.5-3.2c0.3-0.2,0.6-0.5,0.6-1.2    c-0.8-0.6-1.4-1.2-3.2-1.6c-0.7,0-1.5,0.4-1.2,1.1C41.6,138.6,40.4,140.4,41.5,141.5L41.5,141.5z"/>
		<path fill-rule="evenodd" clip-rule="evenodd" fill="#A88C60" d="M37.1,142.8c-1.2-1-2.6-2.1-3.9-1.1c-0.4,0-0.7,0-1.2-0.6    c0.2-1,0.4-1.8,1.7-3.2c0.5-0.5,1.4-0.5,1.5,0.2C35.3,140.5,37.4,141.2,37.1,142.8L37.1,142.8z"/>
		<path fill-rule="evenodd" clip-rule="evenodd" fill="#A88C60" d="M44.4,133.4c-0.5-0.4-1.3-0.3-1.7,0.2c-0.5,0.6-0.4,1.4,0.2,1.8    c0.5,0.4,1.3,0.4,1.7-0.2C45.1,134.7,45,133.9,44.4,133.4L44.4,133.4z"/>
		<path fill-rule="evenodd" clip-rule="evenodd" fill="#A88C60" d="M30,138.1c0.2-0.7,0.8-1.1,1.5-0.9c0.7,0.2,1.2,0.8,1,1.6    c-0.2,0.7-0.9,1.1-1.6,0.9C30.2,139.5,29.8,138.8,30,138.1L30,138.1z"/>
		<polygon fill-rule="evenodd" clip-rule="evenodd" fill="#A88C60" points="39.9,142.6 37.7,136.5 38.8,134.3 38.7,132.9     37.1,133.2 40.4,130.3 40.5,127.1 36.5,128.6 37.4,127.2 41,123.7 41.4,121 37.1,123.1 37.6,121.6 39.6,119.5 38.9,116.8     37.5,117.3 35.6,119.1 35,117.2 33,118.6 32.9,124 30.1,121.1 29.2,124.3 32.1,129.5 28.2,128.5 28.5,131.4 30.7,132.1     33.1,133.8 32.7,135.2 36.4,137.8 36.5,136.2 34,134.8 34.8,133.3 30.4,130.6 33.9,131.3 33.8,129.2 30.6,123.8 33.7,126.7     34.3,119.1 35.2,120.9 37.9,119.2 35.5,122.6 35.4,125.5 38.8,123.8 34.9,128 35.5,130.2 38.9,129.6 35.8,132.4 36.2,134.5     37.7,134.5 36.5,136.2 36.5,137.8 38.8,142.6 39.9,142.6   "/>
		<path fill-rule="evenodd" clip-rule="evenodd" fill="#A88C60" d="M125.4,182.3c2.6-0.1,7.8,1.5,10,2.5c3.2,0.9,10.4-6,21.4-6.6    l0.1,0.2c-0.3-0.2,0.7,0.1,0.8,0.2c-6.1,0.3-9.4,4.7-18.3,6.8c-0.5,0.7,0.2,0.4,0.4,0.7c6.7,1,10-3.5,17-6.2    c0.2,0,1.1-0.5,2.3-0.1c-3,2.8-12,8.5-19.1,8.5c-2.4-0.1-11.2-4.1-14.9-4.3C125.3,183.4,125.3,183.3,125.4,182.3L125.4,182.3z"/>
		<path fill-rule="evenodd" clip-rule="evenodd" fill="#A88C60" d="M153.2,175.3c-0.4-0.4-1.4-0.6-2.1-0.6c-2.4,0.4-4.6,1.7-6.6,2.2    c-3.5,0.8-5.1,3.4-8.5,5.8c-0.9,0-1.7-0.2-2.7-0.2c0,0.6,0.8,0.9,0.9,1.1c0.9,0.5,2.2,0.7,3,0.2c5.9-3.4,11.2-5.5,17.1-6.7    c-0.4-0.2-0.8-0.3-1.2-0.4c-0.7-0.6-4.2,0.5-13.1,4.3c0-0.1,0.2-0.2,0.1-0.2c2.7-1.6,2.8-2.6,4.9-2.9    C147.5,177.4,151.1,175.2,153.2,175.3L153.2,175.3z"/>
		<path fill-rule="evenodd" clip-rule="evenodd" fill="#A88C60" d="M158,184.9c-0.5-0.4-1-0.8-1.7-0.9c-3.2,0.6-4.1,3-11.1,4.6    c-0.3,0-1.3,0.7-2.4,0.7c-1.2,0.1-2.7,0.1-3.2,0.1c-0.1,0.6,0.4,0.7,1.2,1.2c0.9,0.4,1.3,0.5,1.9,0.7c6.1,1.7,12.2-4.1,18.1-5.3    c-0.4-0.2-0.8-0.3-1.2-0.5c-3.6-0.7-11.9,5.6-13.9,4.6c0-0.2-0.8-0.4,0.2-0.6C148.5,189.2,153.2,185.5,158,184.9L158,184.9z"/>
		<path fill-rule="evenodd" clip-rule="evenodd" fill="#A88C60" d="M164.3,178.9c-0.6-0.4-1.2-0.7-2-0.8c-0.3,0.4-0.5,1-0.5,1.6    c0.6,0.4,1.2,0.6,1.8,0.7c-0.1,0.8,1,1.3,1.8,1.3c0.8-0.1,1.6-0.7,1.6-1.6c0-0.8-0.7-1.6-1.5-1.6    C165.1,178.6,164.5,178.7,164.3,178.9L164.3,178.9z"/>
		<path fill-rule="evenodd" clip-rule="evenodd" fill="#A88C60" d="M158.2,172.3c-0.2,0.7-0.1,1.4,0.1,2.2c0.3,0.1,0.3,0.7,0.5,0.7    c0.3,0,0.8-0.8,1.2-1c0.2-0.7,0-1.2-0.2-1.9c0.7-0.3,0.7-1.5,0.3-2.2c-0.3-0.7-1.2-1.2-2.1-0.7c-0.7,0.4-1.1,1.4-0.7,2.1    C157.5,171.7,157.8,172.2,158.2,172.3L158.2,172.3z"/>
		<path fill-rule="evenodd" clip-rule="evenodd" fill="#A88C60" d="M159.3,177.1c1.1-2.3,2.1-3,4.7-3.9c6.7-9.5,10.1-10.1,15-15.9    c0.2,1.8-0.7,2.2-0.8,2.4c-2.9,3.8-4.9,2.4-11.5,11.6c-0.1,0.9,0.4,0.3,0.7,0.4c6.3-5.1,10.6-8.9,12.9-13.4    c0.5,1.3,0.3,2.8-1.5,5.1c-2.9,3.6-5.9,5.7-10,9.1c-2,2-8.2,2.7-8,5.5C160.1,178,160,177.7,159.3,177.1L159.3,177.1z"/>
		<path fill-rule="evenodd" clip-rule="evenodd" fill="#A88C60" d="M172.6,155.8c-2.2,3.7-4.9,5.2-5.9,5.9    c-4.2,3.1-2.3,6.5-3.4,10.1c1-0.6,0.4-1.4,1.8-2c3.7-5.3,2.7-3.6,6.4-7.4c0.6-0.6,1.5-3.4,0.6-2.8c-6.1,7.6-6.8,7.5-6.9,8.3    c-0.1-0.2-1.2,0.8-0.3-0.7c0.5-4.2,2.7-4.6,3-4.8c2.4-1.9,2.7-2.7,4.1-4C172.6,157.8,172.6,156.1,172.6,155.8L172.6,155.8z"/>
		<path fill-rule="evenodd" clip-rule="evenodd" fill="#A88C60" d="M181.9,162.9c-3.2,4.4-9.5,9.5-10.7,10.2c-0.3,0.2-0.4,0.5-1,0.8    c-0.8,0.7-3.2,1.2-3.7,1.5c0.2,0.5,1.4,0.3,2.4,0.5c1,0.1,1.2,0,1.9-0.1c2.2,0.7,4.6-1,7.1-3.2c2-1.7,3.8-3.7,5.4-6.1    c0.1-0.1,0.3-1.6,0.3-2.3c-3.4,5.6-7.2,7.3-10.2,9.9c-0.7,0.3-1.9,0.1-0.7-0.7c5.1-3.3,5.6-4.5,8.4-8.3    C181.4,164.7,181.5,163.2,181.9,162.9L181.9,162.9z"/>
		<path fill-rule="evenodd" clip-rule="evenodd" fill="#A88C60" d="M187.1,156.6c-0.7-0.2-1.4-0.1-2.2,0.1c-0.1,0.5-0.1,1.1,0.2,1.7    c0.7,0.2,1.3,0.1,2-0.1c0.2,0.7,1.4,0.7,2.2,0.4c0.7-0.3,1.2-1.2,0.8-2.1c-0.3-0.7-1.3-1.2-2.1-0.7    C187.7,155.9,187.2,156.3,187.1,156.6L187.1,156.6z"/>
		<path fill-rule="evenodd" clip-rule="evenodd" fill="#A88C60" d="M177.7,152.7c0.2,0.7,0.5,1.3,1.1,1.9c0.2-0.1,0.5,0.6,0.7,0.5    c0.3-0.2,0.5-1.1,0.7-1.4c-0.2-0.7-0.6-1.2-1-1.7c0.6-0.6,0.1-1.7-0.6-2.2c-0.7-0.5-1.7-0.5-2.2,0.2c-0.5,0.7-0.4,1.7,0.2,2.2    C176.9,152.4,177.4,152.7,177.7,152.7L177.7,152.7z"/>
		<path fill-rule="evenodd" clip-rule="evenodd" fill="#A88C60" d="M181,157.7c0.1-2.6,0.7-3.6,2.8-5.4c1.3-11.9,6.4-18.3,7.4-18.3    c-3.5,5.4-0.2,2.9-5.2,13.4c-0.8,2.7,0.8,1.4,1.1,1.3c2.7-3.2,4.4-11.1,5.9-17.4c1,0.9,1.4,3.4,0.7,6.1c-1.2,4.5-1.8,9.4-5.6,12.4    c-1.1,2.7-6.6,5.8-5.2,8.2C182.1,158.2,181.9,158,181,157.7L181,157.7z"/>
		<path fill-rule="evenodd" clip-rule="evenodd" fill="#A88C60" d="M185.4,133.6c-3.2,5.4-7.3,11.4-2.7,17.2    c0.7-0.8,0.4-1.4,0.2-3.3c2.5-5.7,4.7-13.4,4.5-13.1c-1.7,3-3.3,7.1-5,11.2c-0.1-0.1-1.2,1.8-0.7,0.2    C182,140.2,184.9,138.1,185.4,133.6L185.4,133.6z"/>
		<path fill-rule="evenodd" clip-rule="evenodd" fill="#A88C60" d="M197.1,136.8c-4.1,2.1-2.2,5.2-6.8,12.3c-0.9,0.9-2.2,2.9-3.2,4    c0.3,0.4,1.4-0.3,2.4-0.5c0.9-0.4,2.7-1.5,3.3-1.8c2.2-3,6-10.5,5.3-13.6c-1.9,6.5-4.6,11.3-5.3,11.9c-2.7,1.7-3,2.7-1-0.4    C195,143.4,194.8,139.6,197.1,136.8L197.1,136.8z"/>
		<path fill-rule="evenodd" clip-rule="evenodd" fill="#A88C60" d="M197.2,128.8c-0.7,0.1-1.3,0.3-2,0.7c0,0.5,0.2,1.1,0.7,1.5    c0.7-0.1,1.2-0.3,1.8-0.7c0.5,0.7,1.7,0.3,2.2-0.3c0.6-0.6,0.7-1.6,0.1-2.2c-0.6-0.7-1.6-0.7-2.2-0.2    C197.5,128,197.2,128.5,197.2,128.8L197.2,128.8z"/>
		<path fill-rule="evenodd" clip-rule="evenodd" fill="#A88C60" d="M188.2,128.1c0.3,0.7,0.8,1.1,1.6,1.5c0.2-0.1,0.7,0.3,0.8,0.2    c0.2-0.2,0.1-1.2,0.2-1.6c-0.3-0.6-0.8-0.9-1.5-1.3c0.4-0.7-0.4-1.6-1.2-1.8c-0.8-0.2-1.7,0.1-2.1,0.9c-0.2,0.7,0.2,1.7,0.9,2    C187.2,128.1,187.7,128.3,188.2,128.1L188.2,128.1z"/>
		<path fill-rule="evenodd" clip-rule="evenodd" fill="#A88C60" d="M191.6,130.6c0.9-2.9,0.7-3.7,1.4-5.8    c-2.3-10.4,0.6-18.7,1.6-18.9c1.2,5.4-2.4,8.4-1,13.7c0,2.5,1.3,1.7,1.8,1c-0.3-13.8,1.2-5.5,0.6-14.8c2.5,0.7,1.5,13.9-0.1,16.1    c-0.2,2.6-2.9,3.6-3,8.3C192.3,130.6,192.6,130.5,191.6,130.6L191.6,130.6z"/>
		<path fill-rule="evenodd" clip-rule="evenodd" fill="#A88C60" d="M187.5,107.1c-0.3,11.2-2,9.5,3.9,16.3c0.5-0.8,0.1-1.7-0.5-3.3    c-1.1-4.1,0.3-8.4-1.3-9.5c0.7,3.1-0.2,4.5,0.2,8.7c-0.1-0.1-0.8,1.1-0.8-0.5C187.1,114.1,189.1,112.9,187.5,107.1L187.5,107.1z"/>
		<path fill-rule="evenodd" clip-rule="evenodd" fill="#A88C60" d="M199.7,108.8c-1.4,3.5-0.5,5.7-2.1,12.9    c-0.4,0.3-2.7,3.7-2.2,5.2c0.6-1.2,1.4-2.4,2.4-2.9c0.8-0.6,2.2-1.1,2.7-1.4c2.2-3.3,1.9-11.5,0.4-14c0.7,9-0.7,11.5-1.2,12.2    c-2.1,2.1-1.1,0.9-0.8,0.2C200.8,115.8,200,111.8,199.7,108.8L199.7,108.8z"/>
		<path fill-rule="evenodd" clip-rule="evenodd" fill="#A88C60" d="M27.1,104.3l4.3,0.2v0.2l-1.8,0.1c-0.4,0.1-0.8,0.3-1.2,0.5    c-0.4,0.2-0.7,0.6-0.9,1.1c-0.2,0.5-0.2,1.1-0.2,1.8l-0.1,0.7l-0.1,0.9v0.2v0.1l5.5,0.3l0.1-0.9v-0.8c0.1-0.3-0.1-0.6-0.4-0.7    c-0.2-0.2-0.6-0.3-1-0.4l-1.2-0.2V107l5.8,0.4v0.1l-1,0.1c-0.2,0-0.4,0-0.5,0c0,0-0.2,0.1-0.4,0.1c-0.2,0.1-0.4,0.2-0.6,0.3    c-0.2,0.2-0.2,0.4-0.2,0.7l-0.2,1.7l6.5,0.3v-0.5l0.1-0.7v-0.5c0.1-1.2-0.1-2.2-0.5-2.7c-0.4-0.5-0.8-0.8-1.1-1    c-0.2-0.1-0.3-0.2-0.4-0.2c-0.1,0-0.3-0.1-0.4-0.2l-1-0.2l-1.1-0.2l0.1-0.1l4.9,0.3l-0.2,2.9l-0.2,3.7l-0.2,2.9h-0.2l0.2-1.8    l-0.1-0.1l-0.2-0.1l-12-0.7c-0.1,0.3-0.2,0.8-0.2,1.5v0.4h-0.2L27.1,104.3L27.1,104.3z"/>
		<path fill-rule="evenodd" clip-rule="evenodd" fill="#A88C60" d="M28.5,97.7c0.3-0.5,0.8-0.8,1.3-1.1c-0.2-0.5-0.6-0.9-1.1-1.3    l1.4,0.2l1.7,0.3l1.4,0.2c-0.9,0.1-1.6,0.2-2,0.2c-0.4,0.1-0.8,0.2-1.3,0.4c-0.5,0.2-0.9,0.7-1.2,1.1c-0.4,0.5-0.6,1-0.7,1.5    c-0.1,0.3-0.1,0.7,0.1,1.2c0.1,0.6,0.3,0.9,0.7,1.2c0.5,0.2,0.7,0.3,1,0.4c0.2,0,0.7-0.1,1.1-0.4c0.4-0.3,0.9-0.9,1.4-1.6l1.7-2.2    c0.5-0.7,1-1.2,1.7-1.6c0.6-0.3,1.3-0.4,2.2-0.2l0.5,0.1c1.2,0.3,1.8,0.9,2.1,1.7c0.3,0.8,0.4,1.5,0.3,2c-0.2,0.8-0.4,1.4-0.7,1.8    c-0.4,0.3-0.7,0.7-0.9,0.7l-0.5,0.3c0.2,0.2,0.3,0.5,0.7,0.8l0.7,0.7l-5.1-0.8v-0.2c1.2,0,2.2-0.2,3.2-0.6c1-0.3,1.6-0.8,1.9-1.4    c0.3-0.7,0.5-1.1,0.6-1.4c0.2-0.7,0-1.4-0.5-2.1c-0.4-0.6-0.9-0.9-1.6-1c-0.3-0.1-0.7,0-1.1,0.2c-0.3,0.2-0.7,0.7-1.2,1.2    l-1.7,2.2c-0.6,0.8-1.2,1.4-1.8,1.8c-0.7,0.3-1.3,0.5-2.1,0.3c-0.5-0.1-1.2-0.3-1.9-0.7c-0.7-0.4-1-1.3-0.9-2.6    C28,98.7,28.2,98.2,28.5,97.7L28.5,97.7z"/>
		<path fill-rule="evenodd" clip-rule="evenodd" fill="#A88C60" d="M37,85L37,85L37,85L37,85c-1-0.1-1.7-0.2-2.2-0.2    c-0.4,0-0.8,0-1.1,0c-0.2,0-0.6,0.1-1,0.2c-0.3,0.1-0.7,0.3-0.9,0.6c-0.3,0.3-0.5,0.7-0.6,0.9l-0.1,0.2L31,87.1l3.6,1.2l4.6,1.6    l3.6,1.2l0.7-1.9l0.2,0.1l-1.7,5.2l-0.2-0.1l0.6-1.7l-3.6-1.2L34,89.9l-3.6-1.2L30.4,89l-0.2,0.3c-0.1,0.2-0.1,0.6-0.1,0.9    c0.1,0.3,0.2,0.7,0.5,1.1c0.2,0.3,0.5,0.7,0.8,1c0.4,0.2,0.8,0.6,1.4,0.8l1.2,0.6L34,93.9l-5-1.7l2.9-8.9L37,85L37,85z"/>
		<path fill-rule="evenodd" clip-rule="evenodd" fill="#A88C60" d="M37.9,76.2l5.5,0.8l5.1,0.7l0.7-1.4l0.1,0.1l0.1,0.1l-0.7,1.4    l-0.8,1.8L47,81.1l-0.1-0.1L46.8,81l0.8-1.6l-1.2-0.2l-1.6-0.2l-1.2-0.2l-1.7,3.4l1.1,1l1.1,1.1l0.2,0.2c0.5,0.2,1.1-0.2,1.7-1.5    l0.2,0.1l-1.9,3.8L44,86.6c0.5-0.9,0.4-1.7-0.2-2.2l-2.9-2.8l-3.8-3.6l-2-1.8L35,76.1l0.2-0.2c0.1-0.1,0.2-0.1,0.2-0.1L37.9,76.2    L37.9,76.2z M41.4,78.3L39,77.9l-1.8-0.2l1.3,1.2l1.8,1.7l1.3,1.2l1.6-3.2L41.4,78.3L41.4,78.3z"/>
		<path fill-rule="evenodd" clip-rule="evenodd" fill="#A88C60" d="M42.6,63.6c0.3-0.5,0.8-0.8,1.3-1.1c0.6-0.2,1.2-0.3,1.9-0.3    c0.7,0.1,1.4,0.2,2.2,0.5c0.7,0.2,1.4,0.6,2.1,1c0.7,0.5,1.2,0.9,1.7,1.3c0.4,0.4,0.8,0.9,1.1,1.3c0.3,0.5,0.5,1,0.6,1.5    c0.2,0.5,0.2,1.1,0,1.8c-0.1,0.7-0.4,1.5-0.9,2.3l-2.9,4.2L49.4,76l1.1-1.6l-3.2-2.2l-4-2.7l-3.2-2.2l-1,1.6L39,68.8L42.6,63.6    L42.6,63.6z M41.2,66l10.2,7l0.9-1.3c0.4-0.6,0.7-1.2,0.7-1.8c0-0.7-0.4-1.4-1.2-2.3c-0.8-0.8-1.9-1.7-3.1-2.5    c-1.3-1-2.5-1.5-3.3-1.7c-0.8-0.2-1.6-0.1-2,0.2c-0.5,0.2-0.8,0.5-1.2,0.9L41.2,66L41.2,66z"/>
		<path fill-rule="evenodd" clip-rule="evenodd" fill="#A88C60" d="M50.7,54.3c0.7-0.2,1.2-0.2,2-0.1c0.7,0.2,1.4,0.4,2.2,0.8    c0.8,0.4,1.5,0.9,2.2,1.5c0.5,0.5,1,1.1,1.4,1.6c0.4,0.6,0.7,1.2,0.8,1.7c0.3,0.6,0.3,1.2,0.2,2c-0.1,0.7-0.4,1.4-0.9,2    c-0.3,0.4-0.7,0.7-1.1,0.9c-0.2,0.2-0.6,0.2-1,0.2c-0.3,0.1-1,0-2.2-0.2c-1.1-0.2-2.3-0.8-3.7-2.1c-1.2-1.1-2-2.3-2.3-3.8    c-0.3-1.5-0.1-2.7,0.9-3.8C49.7,54.8,50.1,54.4,50.7,54.3L50.7,54.3z M48.7,56.8c0,0.4,0.1,0.8,0.2,1.2c0.2,0.4,0.7,1,1.3,1.7    c0.7,0.7,1.3,1.5,2.1,2.2c0.6,0.6,1.2,1,1.6,1.4c0.5,0.3,0.8,0.6,1.2,0.7c0.4,0.2,0.6,0.2,0.7,0.3c0.2,0,0.3,0.1,0.4,0.1    c0.1,0,0.2,0,0.3,0c0.2,0,0.4-0.1,0.7-0.1c0.3-0.1,0.6-0.2,0.9-0.6c0.3-0.3,0.5-0.7,0.6-1.2c0-0.4,0-0.8-0.1-1.2    c-0.1-0.4-0.2-0.7-0.4-0.9l-1.8-1.8l-1.3-1.3c-1.3-1.2-2.3-2-3-2.3c-0.7-0.3-1.2-0.4-1.7-0.3c-0.4,0.1-0.7,0.2-1.1,0.6    C49,55.8,48.8,56.3,48.7,56.8L48.7,56.8z"/>
		<path fill-rule="evenodd" clip-rule="evenodd" fill="#A88C60" d="M57.3,47.9c0.6-0.2,1.2-0.2,1.7,0c0.1-0.5,0.1-1.1,0-1.7l0.9,1.1    l1.2,1.3l0.9,1L62,49.6c-0.7-0.5-1.3-0.9-1.7-1.1c-0.3-0.2-0.7-0.4-1.2-0.5c-0.6-0.1-1.2-0.1-1.7,0.1c-0.6,0.1-1.1,0.3-1.4,0.7    c-0.2,0.2-0.5,0.6-0.7,1.1c-0.2,0.4-0.2,0.9-0.1,1.4c0.2,0.4,0.3,0.7,0.4,0.9c0.2,0.2,0.6,0.3,1.1,0.3c0.6,0,1.2-0.1,2.2-0.3    l2.6-0.7c0.9-0.2,1.7-0.2,2.3-0.1c0.7,0.1,1.2,0.5,1.8,1.2l0.3,0.3c0.7,1,0.9,1.8,0.6,2.7c-0.3,0.8-0.7,1.4-1.1,1.7    c-0.6,0.5-1.2,0.8-1.7,0.8c-0.5,0.1-0.9,0.1-1.2,0.1l-0.6-0.1c0,0.3,0,0.7,0,1.1l0.2,1l-3.4-3.8l0.1-0.1c0.9,0.7,1.8,1.2,2.8,1.5    c1,0.3,1.8,0.3,2.4,0.1c0.7-0.2,1.1-0.5,1.3-0.7c0.6-0.5,0.8-1.1,0.9-1.8c0-0.7-0.2-1.4-0.6-1.9c-0.2-0.2-0.6-0.4-1-0.4    c-0.4-0.1-1,0-1.7,0.2l-2.7,0.7c-1,0.2-1.8,0.3-2.6,0.2c-0.7-0.1-1.3-0.5-1.9-1.1c-0.3-0.3-0.7-0.9-0.9-1.7    c-0.3-0.7,0-1.7,0.9-2.6C56.2,48.3,56.8,48,57.3,47.9L57.3,47.9z"/>
		<path fill-rule="evenodd" clip-rule="evenodd" fill="#A88C60" d="M76.1,35.1c-1.2,0.7-1.6,1.4-1.2,2.2l4.5,7.6    c0.5,0.7,0.5,1.5,0.1,2.2c-0.3,0.7-0.9,1.3-1.6,1.7c-0.5,0.2-1,0.5-1.6,0.7c-0.5,0.1-1,0.2-1.5,0.1c-0.4-0.1-0.8-0.2-1.2-0.4    c-0.3-0.3-0.7-0.5-0.8-0.9l-4.9-8.3l-1.6,0.9h-0.1v-0.2l4.6-2.7l0.1,0.2l-1.7,1l5.4,9.1c0.2,0.3,0.5,0.6,0.8,0.7    c0.4,0.2,0.8,0.2,1.2,0.1c0.4-0.1,0.7-0.2,1.1-0.4c0.6-0.3,1-0.7,1.3-1.2c0.3-0.4,0.5-0.8,0.4-1.3c0-0.4-0.2-0.8-0.4-1.2l-0.2-0.4    l-1.8-3l-1.4-2.3l-0.9-1.7c-0.5-0.8-1.2-0.9-2.2-0.4l-0.2,0.2l-0.2,0.1l-0.1-0.2l3.9-2.2L76.1,35.1L76.1,35.1z"/>
		<path fill-rule="evenodd" clip-rule="evenodd" fill="#A88C60" d="M81.8,32.6l2.5,2.2l3.2,2.8l2.5,2.2l-2.7-7.6    c-0.3-0.8-1.1-1-2.2-0.6l-0.1-0.2l3.9-1.4l0.1,0.2c-1.2,0.5-1.7,1.1-1.5,1.7l3.9,10.9L91.1,43l-3-2.7l-3.7-3.4l-3-2.7l3.2,9    c0.3,0.7,0.7,1,1.2,1c0.6,0,0.9,0,1-0.1l0.4-0.1l0.1,0.2l-1.3,0.5l-1.7,0.6L83,45.9l-0.1-0.2l0.5-0.2l0.4-0.2    c0.3-0.2,0.4-0.4,0.4-0.7c0-0.3,0-0.6,0-0.8c0-0.2-0.1-0.5-0.2-0.7c-0.1-0.4-0.3-1.1-0.6-1.7l-2.6-7.3c-0.2-0.5-0.8-0.5-2.1,0    l-0.1-0.2L81.8,32.6L81.8,32.6z"/>
		<polygon fill-rule="evenodd" clip-rule="evenodd" fill="#A88C60" points="95.8,28.4 95.9,28.5 94.1,29 97.2,41 98.9,40.6 99,40.8     93.9,42.1 93.8,41.9 95.5,41.5 92.4,29.4 90.7,29.9 90.6,29.7 95.8,28.4   "/>
		<path fill-rule="evenodd" clip-rule="evenodd" fill="#A88C60" d="M104,27c0.6-0.1,1.2,0,1.7,0.2c0.6,0.2,1.1,0.7,1.5,1.2    c0.4,0.5,0.8,1.2,1.2,1.9c0.2,0.7,0.5,1.4,0.6,2.2c0.1,0.8,0.2,1.5,0.2,2.2c-0.1,0.6-0.2,1.2-0.2,1.7c-0.2,0.5-0.4,1-0.7,1.4    c-0.3,0.4-0.7,0.8-1.4,1.2c-0.6,0.4-1.3,0.7-2.3,0.8l-5.1,0.7v-0.2l1.9-0.2l-0.5-3.7l-0.7-4.8l-0.5-3.7l-1.8,0.2v-0.2L104,27    L104,27z M101.2,27.6l1.7,12.3l1.7-0.2c0.7-0.1,1.2-0.3,1.7-0.7c0.5-0.3,0.8-1.2,0.9-2.4c0.1-1.2,0-2.6-0.2-4    c-0.2-1.7-0.5-2.8-1-3.7c-0.4-0.7-0.9-1.2-1.4-1.4c-0.5-0.2-1-0.2-1.5-0.2L101.2,27.6L101.2,27.6z"/>
		<path fill-rule="evenodd" clip-rule="evenodd" fill="#A88C60" d="M116.5,27.3c0.5,0.3,1,0.8,1.2,1.4c0.4,0.6,0.7,1.3,0.9,2.2    c0.2,0.8,0.3,1.7,0.3,2.6c-0.1,0.7-0.2,1.5-0.3,2.2c-0.2,0.7-0.4,1.3-0.7,1.8c-0.3,0.5-0.7,1-1.3,1.4c-0.6,0.4-1.2,0.7-2.1,0.7    c-0.6,0-1-0.1-1.3-0.2c-0.3-0.2-0.7-0.3-0.9-0.6c-0.2-0.2-0.7-0.8-1.3-1.7c-0.6-0.9-0.9-2.3-0.9-4.1c0.1-1.7,0.5-3.1,1.3-4.3    c0.8-1.2,2-1.9,3.4-1.9C115.5,26.7,116,27,116.5,27.3L116.5,27.3z M113.3,27.4c-0.3,0.3-0.6,0.7-0.7,1.1c-0.2,0.4-0.2,1.1-0.4,2.1    c-0.2,1-0.2,2.1-0.2,3.1c0,0.8,0.1,1.5,0.1,2.1c0.1,0.6,0.2,1,0.2,1.4c0.1,0.3,0.2,0.6,0.3,0.7c0,0.2,0.1,0.2,0.2,0.3    c0.1,0.1,0.2,0.2,0.2,0.2c0.1,0.1,0.2,0.2,0.5,0.5c0.3,0.2,0.7,0.3,1.1,0.3c0.5,0,0.9-0.2,1.2-0.4c0.3-0.2,0.7-0.5,0.8-0.7    c0.2-0.4,0.3-0.7,0.3-1l0.2-2.6l0.1-1.9c0-1.7-0.1-3-0.3-3.7c-0.2-0.7-0.5-1.2-0.8-1.5c-0.4-0.2-0.8-0.4-1.2-0.4    C114.2,27,113.7,27.1,113.3,27.4L113.3,27.4z"/>
		<path fill-rule="evenodd" clip-rule="evenodd" fill="#A88C60" d="M125.6,27.4c0.5,0.3,0.9,0.7,1.2,1.3c0.4-0.2,0.8-0.7,1.2-1.2    l-0.1,1.4l-0.3,1.7l-0.2,1.4c-0.2-0.9-0.2-1.6-0.3-2c-0.1-0.3-0.3-0.8-0.5-1.2c-0.3-0.5-0.7-0.9-1.2-1.2c-0.5-0.3-1.1-0.5-1.6-0.6    c-0.3-0.1-0.7,0-1.2,0.2c-0.5,0.2-0.8,0.4-1.1,0.8c-0.3,0.4-0.4,0.7-0.4,1c0,0.2,0.2,0.6,0.5,1c0.3,0.4,0.9,0.9,1.7,1.4l2.2,1.5    c0.7,0.5,1.2,1,1.6,1.6c0.4,0.6,0.5,1.3,0.4,2.2l-0.1,0.5c-0.2,1.2-0.7,1.9-1.6,2.2c-0.9,0.2-1.6,0.4-2.1,0.3    c-0.7-0.1-1.3-0.2-1.7-0.7c-0.4-0.3-0.7-0.7-0.8-0.8l-0.3-0.4c-0.2,0.1-0.5,0.3-0.8,0.7l-0.7,0.7l0.6-5.1l0.2,0.1    c0,1.2,0.3,2.2,0.7,3.1c0.4,1,0.9,1.6,1.6,1.9c0.6,0.2,1.1,0.4,1.4,0.4c0.7,0.2,1.4-0.1,2-0.5c0.6-0.5,0.9-1.1,1-1.7    c0-0.3-0.1-0.7-0.3-1c-0.2-0.3-0.7-0.7-1.3-1.2l-2.2-1.6c-0.8-0.6-1.5-1.2-1.9-1.7c-0.4-0.6-0.6-1.3-0.5-2.1    c0.1-0.5,0.3-1.2,0.7-1.9c0.4-0.7,1.2-1.1,2.6-1.1C124.6,26.9,125.2,27.1,125.6,27.4L125.6,27.4z"/>
		<path fill-rule="evenodd" clip-rule="evenodd" fill="#A88C60" d="M146.7,32.2l1.2,0.4l1,0.2l-0.1,0.2l-1.7-0.6l-3.7,11.9l1.7,0.6    v0.2l-5.1-1.6l0.1-0.2l1.8,0.6l3.6-11.4l-2.2,3.5l-3.1,4.7c-0.6,0.8-0.9,1.3-1.2,1.7c-0.3,0.2-0.4,0.5-0.5,0.7c0-0.2,0-0.4,0-0.7    c-0.1-0.3-0.1-0.7-0.1-1l0.1-4.5l0.1-4.1l0.1-2.2l-3.2,10.5c-0.1,0.2-0.1,0.3,0,0.4c0.1,0.2,0.2,0.2,0.2,0.3    c0.1,0.1,0.2,0.1,0.3,0.2l0.7,0.3l0.5,0.2l-0.1,0.1v0.1l-1.2-0.4l-1.7-0.5l-1.2-0.4l0.1-0.2c1.2,0.3,1.9,0.3,2.1-0.2l1-3.2l1.2-4    l1-3.2c0.1-0.2,0-0.4-0.2-0.6c-0.2-0.2-0.3-0.2-0.7-0.4l-0.9-0.3l0.1-0.2l3.7,1.2l-0.1,1.8l-0.1,3.4l-0.2,3.2l-0.1,1.6h0.1    l1.7-2.6l2.2-3.2l1.7-2.6L146.7,32.2L146.7,32.2z"/>
		<path fill-rule="evenodd" clip-rule="evenodd" fill="#A88C60" d="M160.2,39.2L158,43l-0.1-0.1l0.7-1.7c0.1-0.4,0.2-0.8,0.2-1.3    c-0.1-0.5-0.2-0.9-0.6-1.2c-0.4-0.3-0.9-0.7-1.6-1.1l-0.6-0.3l-0.8-0.4l-0.1-0.1l-0.1-0.1l-2.7,4.7l0.8,0.5l0.7,0.4    c0.3,0.2,0.7,0.2,0.9,0c0.3-0.3,0.6-0.5,0.8-0.8l0.7-0.9l0.1,0.1l-2.8,5.1l-0.1-0.1l0.3-0.9c0.1-0.2,0.2-0.3,0.2-0.4    c0-0.1,0.1-0.2,0.1-0.4c0.1-0.2,0.1-0.4,0-0.7c-0.1-0.2-0.2-0.4-0.4-0.6l-1.5-0.8l-3.2,5.6l0.4,0.2L150,48l0.4,0.2    c1.2,0.6,2,0.8,2.7,0.7c0.7-0.2,1.1-0.3,1.3-0.5c0.2-0.2,0.3-0.2,0.4-0.3c0.1,0,0.2-0.1,0.3-0.2l0.6-0.8l0.7-0.8l0.1,0.1l-2.4,4.3    l-2.6-1.4l-3.2-1.8l-2.5-1.5l0.1-0.2l1.6,0.8h0.1l0.2-0.1l6-10.5c-0.2-0.2-0.7-0.5-1.2-0.8l-0.3-0.2l0.1-0.2L160.2,39.2    L160.2,39.2z"/>
		<path fill-rule="evenodd" clip-rule="evenodd" fill="#A88C60" d="M170.5,46.6c-0.9-0.7-1.7-0.8-2.3-0.6l-1.3,0.7l-1.7,0.7    l-1.3,0.7l-0.4,2.5l-0.5,3.2l-0.4,2.5l1.2,0.7l-0.2,0.2l-1.3-0.9l-1.6-1.2l-1.3-0.9l0.2-0.2l1.7,1.2l0.3-2l0.4-2.5l0.3-2l-1.4,0.7    l-1.7,0.8l-1.4,0.7c-0.2,0.2-0.3,0.2-0.4,0.3c-0.2,0.4,0,1,1,1.7l-0.1,0.2l-1.1-0.8l-1.4-1l-1.1-0.8l0.2-0.1    c0.9,0.7,1.9,0.8,2.8,0.3l1.4-0.7l1.9-1l1.4-0.7l0.3-2.2l0.4-2.7l0.3-2.2l-1.1-0.8l0.1-0.2l4,2.9l-0.2,0.2l-1.5-1.1l-0.2,1.7    l-0.2,2.2l-0.2,1.6l1.2-0.6l1.5-0.7l1.2-0.6c0.2-0.1,0.2-0.2,0.3-0.2c0.2-0.2,0.2-0.4-0.1-0.7c-0.2-0.2-0.5-0.5-0.9-0.8l0.1-0.2    l3.3,2.5L170.5,46.6L170.5,46.6z"/>
		<polygon fill-rule="evenodd" clip-rule="evenodd" fill="#A88C60" points="176.8,52 176.6,52.2 175.3,50.9 166.8,59.9 168.1,61.1     167.9,61.4 164.1,57.7 164.2,57.6 165.5,58.7 174.1,49.7 172.7,48.5 172.9,48.4 176.8,52   "/>
		<path fill-rule="evenodd" clip-rule="evenodd" fill="#A88C60" d="M180.8,56.3c0.5,0.6,0.7,1.6,0.6,2.8h0.8h0.9v0.1v0.1l-3.4,3    l-0.1-0.1c1.2-1.9,1.7-3.2,1.6-4.1c-0.2-0.8-0.4-1.4-0.7-1.7c-0.3-0.4-0.8-0.6-1.4-0.7c-0.7,0-1.3,0.2-2.1,0.5    c-0.8,0.3-1.6,0.9-2.4,1.6c-0.2,0.2-0.3,0.3-0.6,0.6c-0.2,0.2-0.5,0.5-0.8,0.8l-1.1,1.1c-0.3,0.3-0.6,0.7-0.8,1    c-0.2,0.2-0.5,0.7-0.7,1.2c-0.2,0.5-0.2,1.2,0,1.9c0.1,0.2,0.2,0.4,0.4,0.7c0.2,0.2,0.6,0.5,0.9,0.6c0.7,0.2,1.2,0.2,1.8,0.1    c0.6-0.2,1.1-0.2,1.4-0.4c0.3-0.2,0.7-0.2,1.1-0.5c0.3-0.2,0.7-0.3,1-0.5l0.1,0.1l-3.9,3.5c-0.1-0.2-0.1-0.3-0.1-0.4    c0.1-0.2,0.1-0.3,0.2-0.6l0.2-0.7V66l-0.1-0.1c-1.2,0.1-2.2-0.2-2.7-0.8c-0.5-0.6-0.8-1.2-0.9-2c0-0.7,0.2-1.7,0.6-2.8    c0.4-1.2,1.2-2.2,2.4-3.2c1-0.9,1.9-1.5,2.7-1.7c0.7-0.1,1.2-0.2,1.6-0.2c0.3-0.1,0.7-0.1,0.9-0.1c0.2-0.1,0.6,0,1,0.1    c0.4,0.2,0.9,0.3,1.3,0.7L180.8,56.3L180.8,56.3z"/>
		<path fill-rule="evenodd" clip-rule="evenodd" fill="#A88C60" d="M186.3,68l-3.5,4.2l-3.2,4l0.8,1.3l-0.2,0.1h-0.1l-0.8-1.3    l-1.1-1.7l-0.8-1.3l0.1-0.1h0.1l1,1.5l0.8-0.9l1.1-1.2l0.7-0.9l-2-3.2l-1.5,0.3l-1.4,0.4l-0.2,0.1c-0.4,0.3-0.3,1,0.4,2.2    l-0.2,0.2l-2.3-3.7l0.2-0.1c0.6,0.8,1.2,1.2,2,0.9l3.9-1.1l5.1-1.4l2.6-0.7l0.2,0.1V66c0.1,0.1,0,0.2,0,0.2L186.3,68L186.3,68z     M182.7,69.9l1.6-1.8l1.2-1.4l-1.8,0.5l-2.3,0.7l-1.7,0.6l1.9,3L182.7,69.9L182.7,69.9z"/>
		<path fill-rule="evenodd" clip-rule="evenodd" fill="#A88C60" d="M193.5,75.4l-2,2.7l-2.5,3.5l-1.9,2.7l7.2-3.4    c0.8-0.4,0.9-1.2,0.4-2.3l0.2-0.1l1.8,3.7l-0.3,0.1c-0.6-1.2-1.2-1.6-1.8-1.2l-10.5,5l-0.1-0.2l2.3-3.2l3-4.1l2.3-3.2l-8.7,4.2    c-0.6,0.3-0.9,0.7-0.8,1.2c0.1,0.6,0.2,0.9,0.3,1l0.2,0.4l-0.2,0.1l-0.6-1.2l-0.7-1.6l-0.6-1.2l0.2-0.1l0.3,0.4l0.2,0.4    c0.2,0.2,0.4,0.3,0.7,0.3c0.4,0,0.7,0,0.9-0.1c0.2,0,0.4-0.1,0.7-0.2c0.4-0.1,1-0.3,1.7-0.7l7-3.3c0.4-0.2,0.3-0.9-0.2-2.1    l0.2-0.1L193.5,75.4L193.5,75.4z"/>
		<path fill-rule="evenodd" clip-rule="evenodd" fill="#A88C60" d="M198.5,90.8c-0.2,0.6-0.5,1.2-0.9,1.7c-0.5,0.6-1.1,1.1-1.8,1.5    c-0.7,0.4-1.6,0.8-2.3,1.1c-0.7,0.2-1.5,0.3-2.2,0.3c-0.7,0.1-1.3,0-2-0.1c-0.6-0.2-1.2-0.5-1.7-0.9c-0.6-0.5-1-1.1-1.2-1.8    c-0.2-0.6-0.3-1-0.2-1.4c0-0.3,0.1-0.7,0.2-1c0.2-0.2,0.6-0.8,1.2-1.7c0.7-0.8,1.9-1.5,3.7-2.1c1.6-0.4,3.1-0.5,4.5,0    c1.5,0.4,2.4,1.3,2.8,2.7C198.7,89.6,198.7,90.2,198.5,90.8L198.5,90.8z M197.5,87.8c-0.3-0.2-0.7-0.4-1.2-0.4    c-0.4,0-1.2,0.1-2.2,0.2c-1,0.1-1.9,0.3-2.9,0.7c-0.8,0.2-1.5,0.4-2,0.7c-0.5,0.2-0.9,0.4-1.2,0.6c-0.3,0.2-0.6,0.4-0.7,0.5    c-0.2,0.1-0.2,0.2-0.3,0.2c0,0.1-0.1,0.2-0.2,0.3c0,0.1-0.2,0.3-0.2,0.7c-0.2,0.2-0.2,0.7,0,1.1c0.2,0.5,0.3,0.8,0.7,1.1    c0.3,0.2,0.7,0.4,1,0.5c0.3,0.2,0.7,0.2,1,0.1l2.5-0.5l1.8-0.5c1.7-0.5,2.8-1,3.5-1.4c0.7-0.4,1.1-0.8,1.2-1.2    c0.1-0.4,0.1-0.8,0-1.2C198.1,88.5,197.9,88.1,197.5,87.8L197.5,87.8z"/>
		<path fill-rule="evenodd" clip-rule="evenodd" fill="#A88C60" d="M200.7,99.9c-0.2,0.5-0.4,1-0.9,1.4c0.4,0.4,0.9,0.7,1.6,0.9    l-1.4,0.2l-1.8,0.3l-1.3,0.2c0.8-0.4,1.4-0.7,1.7-0.9c0.3-0.2,0.7-0.5,1.1-0.8c0.4-0.4,0.7-0.9,0.8-1.5c0.2-0.6,0.3-1.2,0.2-1.7    c-0.1-0.2-0.2-0.7-0.6-1.1c-0.3-0.5-0.7-0.7-1.1-0.8c-0.5-0.1-0.8-0.2-1.1-0.1c-0.2,0-0.6,0.3-0.8,0.7c-0.3,0.4-0.6,1.1-0.8,2    l-0.8,2.6c-0.2,0.8-0.6,1.5-1,2c-0.4,0.5-1.1,0.8-2,1l-0.4,0.1c-1.2,0.1-2.1-0.2-2.7-0.9c-0.5-0.7-0.8-1.3-0.9-1.8    c-0.2-0.7-0.2-1.4,0.1-1.9c0.3-0.5,0.4-0.8,0.6-1l0.3-0.5c-0.2-0.2-0.5-0.3-0.9-0.5l-0.9-0.4l5.1-1v0.2c-1.1,0.4-2,0.9-2.7,1.7    c-0.7,0.7-1.2,1.3-1.3,2c-0.1,0.7-0.1,1.2,0,1.5c0.1,0.7,0.5,1.3,1.1,1.7c0.7,0.4,1.2,0.6,1.9,0.5c0.3-0.1,0.7-0.3,0.9-0.7    c0.3-0.3,0.5-0.8,0.7-1.7l0.8-2.6c0.2-0.9,0.7-1.7,1.1-2.2c0.5-0.6,1.1-1,1.8-1.2c0.5-0.1,1.2,0,2,0.2c0.8,0.2,1.4,0.8,1.8,2.1    C200.9,98.7,200.9,99.3,200.7,99.9L200.7,99.9z"/>
	</g>
	<g>
		<path fill="#A88C60" d="M251.7,152.9l1.1-2.4c0,0-1.4-1.7-5.8-1.7s-7.2,2-7.2,5.3s2.4,4.5,6.2,5.2c3.8,0.7,4.3,1.9,4.3,2.7    c0,0.8-0.7,2.2-3.6,2.2c-2.9,0-5.1-1.1-6.1-1.8l-1.1,2.4c0,0,2.3,2.2,7,2.2s7.2-2.8,7.2-5.3c0,0,0.4-3.7-5.5-4.9    c-5.9-1.2-5-2.6-5-3.1s0.5-2.1,3.8-2.1C246.9,151.5,248.9,151.3,251.7,152.9z"/>
		<polygon fill="#A88C60" points="260.4,149 273.3,149 273.3,151.7 263.7,151.7 263.7,156.4 272.2,156.4 272.2,159.1 263.7,159.1     263.7,164 273.7,164 273.7,166.7 260.4,166.7   "/>
		<polygon fill="#A88C60" points="325.1,149 338,149 338,151.8 328.4,151.8 328.4,156.4 336.9,156.4 336.9,159.1 328.4,159.1     328.4,164.1 338.4,164.1 338.4,166.7 325.1,166.7   "/>
		<polygon fill="#A88C60" points="240.9,180.6 253.8,180.6 253.8,183.4 244.2,183.4 244.2,188.1 252.7,188.1 252.7,190.7     244.2,190.7 244.2,195.7 254.2,195.7 254.2,198.4 240.9,198.4   "/>
		<path fill="#A88C60" d="M405.7,189.5c0,5-4.3,9.1-9.6,9.1s-9.6-4.1-9.6-9.1c0-5,4.3-9.1,9.6-9.1S405.7,184.5,405.7,189.5z     M396,183.4c-3.5,0-6.4,2.7-6.4,6.1c0,3.4,2.8,6.1,6.4,6.1c3.5,0,6.4-2.7,6.4-6.1C402.4,186.1,399.5,183.4,396,183.4z"/>
		<path fill="#A88C60" d="M296.3,164c-1.8,1.8-4.3,2.9-7.1,2.9c-5.3,0-9.6-4.1-9.6-9.1c0-5,4.3-9.1,9.6-9.1c2.8,0,5.4,1.1,7.1,3    l-2.3,2.1c-1.2-1.3-2.9-2.1-4.8-2.1c-3.5,0-6.4,2.7-6.4,6.1s2.8,6.1,6.4,6.1c1.9,0,3.7-0.8,4.8-2.1L296.3,164z"/>
		<path fill="#A88C60" d="M324.9,195.6c-1.8,1.8-4.3,2.9-7.1,2.9c-5.3,0-9.6-4.1-9.6-9.1c0-5,4.3-9.1,9.6-9.1c2.8,0,5.4,1.1,7.1,3    l-2.3,2.1c-1.2-1.3-2.9-2.1-4.8-2.1c-3.5,0-6.4,2.7-6.4,6.1c0,3.4,2.8,6.1,6.4,6.1c1.9,0,3.7-0.8,4.8-2.1L324.9,195.6z"/>
		<path fill="#A88C60" d="M369.6,195.7c-1.8,1.8-4.3,2.9-7.1,2.9c-5.3,0-9.6-4.1-9.6-9.1c0-5,4.3-9.1,9.6-9.1c2.8,0,5.4,1.1,7.1,3    l-2.3,2.1c-1.2-1.3-2.9-2.1-4.8-2.1c-3.5,0-6.4,2.7-6.4,6.1c0,3.4,2.8,6.1,6.4,6.1c1.9,0,3.7-0.8,4.8-2.1L369.6,195.7z"/>
		<path fill="#A88C60" d="M561.6,195.7c-1.8,1.8-4.3,2.9-7.1,2.9c-5.3,0-9.6-4.1-9.6-9.1c0-5,4.3-9.1,9.6-9.1c2.8,0,5.4,1.1,7.1,3    l-2.3,2.1c-1.2-1.3-2.9-2.1-4.8-2.1c-3.5,0-6.4,2.7-6.4,6.1c0,3.4,2.8,6.1,6.4,6.1c1.9,0,3.7-0.8,4.8-2.1L561.6,195.7z"/>
		<path fill="#A88C60" d="M369.9,149h3.3l8,17.7h-3.5l-1.8-4.1h-8.7l-1.9,4.1h-3.4L369.9,149z M371.5,152.4l-3.3,7.6h6.7    L371.5,152.4z"/>
		<path fill="#A88C60" d="M426.1,149h3.3l8,17.7H434l-1.8-4.1h-8.7l-1.9,4.1h-3.4L426.1,149z M427.8,152.4l-3.3,7.6h6.7L427.8,152.4    z"/>
		<path fill="#A88C60" d="M336.9,180.6h3.3l8,17.7h-3.5l-1.8-4.1h-8.7l-1.9,4.1h-3.4L336.9,180.6z M338.5,184l-3.3,7.6h6.7    L338.5,184z"/>
		<path fill="#A88C60" d="M573.7,180.6h3.3l8,17.7h-3.5l-1.8-4.1h-8.7l-1.9,4.1h-3.4L573.7,180.6z M575.3,184.1l-3.3,7.6h6.7    L575.3,184.1z"/>
		<polygon fill="#A88C60" points="478.6,149 491.5,149 491.5,151.8 481.9,151.8 481.9,156.4 490.4,156.4 490.4,159.1 481.9,159.1     481.9,164.1 491.9,164.1 491.9,166.7 478.6,166.7   "/>
		<path fill="#A88C60" d="M453.9,149h8.7c0,0,8.7,0.2,8.7,8.9s-8.7,8.9-8.7,8.9h-8.7V149z M468.1,157.8c0-5.5-5.5-6-5.5-6h-5.4v12.1    h5.5C462.6,163.9,468.1,163.4,468.1,157.8z"/>
		<path fill="#A88C60" d="M261.5,180.6h8.7c0,0,8.7,0.2,8.7,8.9c0,8.7-8.7,8.9-8.7,8.9h-8.7V180.6z M275.7,189.5c0-5.5-5.5-6-5.5-6    h-5.4v12.1h5.5C270.2,195.5,275.7,195,275.7,189.5z"/>
		<path fill="#A88C60" d="M303.2,149h8c0,0,6.7,0.2,6.7,6.2c0,0,0.5,3.9-3.7,5.6l4,5.8h-3.5l-3.6-5.1h-4.7v5.1h-3.2V149z     M306.5,158.9h4.7c0,0,3.5-0.2,3.5-3.6c0-3.4-3.8-3.4-3.8-3.4h-4.4V158.9z"/>
		<path fill="#A88C60" d="M387.1,149h8c0,0,6.7,0.2,6.7,6.2c0,0,0.5,3.9-3.7,5.6l4,5.8h-3.5l-3.6-5.1h-4.7v5.1h-3.2V149z     M390.4,158.9h4.7c0,0,3.5-0.2,3.5-3.6c0-3.4-3.8-3.4-3.8-3.4h-4.4V158.9z"/>
		<rect x="409.4" y="149" fill="#A88C60" width="3.2" height="17.7"/>
		<path fill="#A88C60" d="M394.1,179.1c0.1-0.1,3.4-3.4,3.4-3.4h3.8l-4.3,3.4H394.1z"/>
		<path fill="#A88C60" d="M408.8,147.5c0.1-0.1,3.4-3.4,3.4-3.4h3.8l-4.3,3.4H408.8z"/>
		<path fill="#A88C60" d="M475,179.1c0.1-0.1,3.4-3.4,3.4-3.4h3.8l-4.3,3.4H475z"/>
		<polyline fill="#A88C60" points="349.5,166.7 352.7,166.7 352.7,151.7 358.6,151.7 358.6,149 343.6,149 343.6,151.7 349.5,151.7     349.5,166.7   "/>
		<path fill="#A88C60" d="M285.9,180.6v10.9c0,0-0.1,7.1,7.9,7.1c8,0,7.5-7.5,7.5-7.5v-10.4h-3.2v9.9c0,0,0.4,5.1-4.3,5.1    s-4.6-3.9-4.6-5.3v-9.8H285.9z"/>
		<rect x="376.4" y="180.6" fill="#A88C60" width="3.2" height="17.7"/>
		<path fill="#A88C60" d="M469.4,180.6v10.9c0,0-0.1,7.1,7.9,7.1c8,0,7.5-7.5,7.5-7.5v-10.4h-3.2v9.9c0,0,0.4,5.1-4.3,5.1    c-4.7,0-4.6-3.9-4.6-5.3v-9.8H469.4z"/>
		<rect x="534.8" y="180.6" fill="#A88C60" width="3.2" height="17.7"/>
		<polygon fill="#A88C60" points="516.1,180.6 519.4,180.6 519.4,195.6 528.6,195.6 528.6,198.4 516.1,198.4   "/>
		<path fill="#A88C60" d="M493.3,180.6h8.2c0,0,6.5-0.4,6.5,4.5c0,0,0.3,2.5-2.1,3.9c0,0,2.8,0.8,3,3.6c0.3,2.8-1,4-1.9,4.5    s-2.4,1.1-5.2,1.1c-2.8,0-8.5,0-8.5,0V180.6z M496.5,188.1h4.9c0.6,0,3.3-0.1,3.3-2.5s-3.1-2.3-3.1-2.3h-5.1V188.1z M496.5,195.8    h5.5c0.7,0,3.7-0.2,3.7-2.7c0-2.5-3.5-2.5-3.5-2.5h-5.7V195.8z"/>
		<polygon fill="#A88C60" points="413,180.6 415.7,180.6 425.4,192.6 425.4,180.6 428.6,180.6 428.6,198.4 425.9,198.4 416.2,186.4     416.2,198.4 413,198.4   "/>
		<path fill="#A88C60" d="M447.7,180.6h7.6c0,0,7.1-0.1,7.1,6.2s-6.4,6.4-7.3,6.4c-0.9,0-4.1,0-4.1,0v5.1h-3.2V180.6z M451,190.4    c0,0,4,0,4.5,0c0.5,0,3.7-0.4,3.6-3.7s-3.8-3.3-3.8-3.3H451V190.4z"/>
	</g>
</g>
</svg>